<svg xmlns="http://www.w3.org/2000/svg" xmlns:xlink="http://www.w3.org/1999/xlink" viewBox="0,0,256,256" width="196px" height="196px"><g fill="#000000" fill-rule="nonzero" stroke="none" stroke-width="1" stroke-linecap="butt" stroke-linejoin="miter" stroke-miterlimit="10" stroke-dasharray="" stroke-dashoffset="0" font-family="none" font-weight="none" font-size="none" text-anchor="none" style="mix-blend-mode: normal"><g transform="scale(4.26667,4.26667)"><path d="M30,0c-16.542,0 -30,13.458 -30,30c0,16.542 13.458,30 30,30c3.929,0 7.75886,-0.75323 11.38086,-2.24023c0.375,-0.154 0.61914,-0.52078 0.61914,-0.92578c0,-0.405 -0.24414,-0.77178 -0.61914,-0.92578c-10.558,-4.332 -17.38086,-14.5012 -17.38086,-25.9082c0,-11.407 6.82286,-21.5762 17.38086,-25.9082c0.375,-0.154 0.61914,-0.51978 0.61914,-0.92578c0,-0.406 -0.24414,-0.77078 -0.61914,-0.92578c-3.622,-1.486 -7.45186,-2.24023 -11.38086,-2.24023zM30,2c2.861,0 5.66428,0.42839 8.36328,1.27539c-10.017,5.099 -16.36328,15.33661 -16.36328,26.72461c0,11.388 6.34628,21.62561 16.36328,26.72461c-2.699,0.847 -5.50228,1.27539 -8.36328,1.27539c-15.439,0 -28,-12.561 -28,-28c0,-15.439 12.561,-28 28,-28zM29.99805,4c-3.672,0.004 -7.26648,0.72503 -10.39648,2.08203c-0.507,0.22 -0.73953,0.80845 -0.51953,1.31445c0.164,0.377 0.53197,0.60352 0.91797,0.60352c0.133,0 0.26944,-0.02503 0.39844,-0.08203c2.881,-1.25 6.20252,-1.91397 9.60352,-1.91797c0.552,0 0.99905,-0.44995 0.99805,-1.00195c-0.001,-0.552 -0.448,-0.99805 -1,-0.99805zM46,7c-0.552,0 -1,0.448 -1,1c0,2.206 -1.794,4 -4,4c-0.552,0 -1,0.448 -1,1c0,0.552 0.448,1 1,1c2.206,0 4,1.794 4,4c0,0.552 0.448,1 1,1c0.552,0 1,-0.448 1,-1c0,-2.206 1.794,-4 4,-4c0.552,0 1,-0.448 1,-1c0,-0.552 -0.448,-1 -1,-1c-2.206,0 -4,-1.794 -4,-4c0,-0.552 -0.448,-1 -1,-1zM15.13477,9.00977c-0.25363,-0.03463 -0.52024,0.02686 -0.74024,0.19336c-3.092,2.345 -5.76625,5.52041 -7.53125,8.94141c-0.253,0.491 -0.06131,1.09466 0.42969,1.34766c0.147,0.075 0.30398,0.11133 0.45898,0.11133c0.363,0 0.71167,-0.19897 0.88867,-0.54297c1.631,-3.16 4.10389,-6.09567 6.96289,-8.26367c0.441,-0.334 0.52736,-0.96039 0.19336,-1.40039c-0.1665,-0.22 -0.40848,-0.35209 -0.66211,-0.38672zM46,11.3125c0.445,0.668 1.0195,1.2435 1.6875,1.6875c-0.668,0.445 -1.2435,1.0195 -1.6875,1.6875c-0.445,-0.668 -1.0195,-1.2435 -1.6875,-1.6875c0.668,-0.444 1.2435,-1.0195 1.6875,-1.6875zM38,26.04492c-0.36413,0 -0.72798,0.17022 -0.89648,0.51172l-1.92578,3.90039l-4.30469,0.55078c-0.379,0.048 -0.69731,0.30697 -0.82031,0.66797c-0.123,0.362 -0.02977,0.76125 0.24023,1.03125l3.16016,3.1582l-0.44727,4.02344c-0.043,0.387 0.14356,0.7648 0.47656,0.9668c0.334,0.203 0.75317,0.19166 1.07617,-0.02734l3.44141,-2.31836l3.44141,2.31836c0.169,0.114 0.36359,0.17188 0.55859,0.17188c0.179,0 0.35858,-0.04753 0.51758,-0.14453c0.333,-0.202 0.51761,-0.5798 0.47461,-0.9668l-0.44531,-4.02344l3.1582,-3.1582c0.271,-0.27 0.36323,-0.67025 0.24023,-1.03125c-0.123,-0.361 -0.43936,-0.61997 -0.81836,-0.66797l-4.30469,-0.55078l-1.92578,-3.90039c-0.168,-0.3415 -0.53236,-0.51172 -0.89648,-0.51172zM38,29.25977l1.26758,2.56445c0.148,0.301 0.43653,0.50878 0.76953,0.55078l2.81445,0.35938l-2.05859,2.05469c-0.215,0.215 -0.32011,0.51636 -0.28711,0.81836l0.26172,2.35547l-2.20898,-1.48828c-0.169,-0.114 -0.36359,-0.16992 -0.55859,-0.16992c-0.195,0 -0.39059,0.05592 -0.55859,0.16992l-2.20898,1.48828l0.26172,-2.35547c0.034,-0.302 -0.07211,-0.60336 -0.28711,-0.81836l-2.05664,-2.05469l2.81445,-0.35937c0.332,-0.043 0.62153,-0.24978 0.76953,-0.55078zM54,46c-0.552,0 -1,0.448 -1,1v1.58594l-2.41406,2.41406h-1.58594c-0.552,0 -1,0.448 -1,1c0,0.552 0.448,1 1,1h1.58594l2.41406,2.41406v1.58594c0,0.552 0.448,1 1,1c0.552,0 1,-0.448 1,-1v-1.58594l2.41406,-2.41406h1.58594c0.552,0 1,-0.448 1,-1c0,-0.552 -0.448,-1 -1,-1h-1.58594l-2.41406,-2.41406v-1.58594c0,-0.552 -0.448,-1 -1,-1zM54,50.41406l1.58594,1.58594l-1.58594,1.58594l-1.58594,-1.58594z"></path></g></g></svg>