<svg xmlns="http://www.w3.org/2000/svg" xmlns:xlink="http://www.w3.org/1999/xlink" viewBox="0,0,256,256" width="196px" height="196px"><g fill="#e0b644" fill-rule="nonzero" stroke="none" stroke-width="1" stroke-linecap="butt" stroke-linejoin="miter" stroke-miterlimit="10" stroke-dasharray="" stroke-dashoffset="0" font-family="none" font-weight="none" font-size="none" text-anchor="none" style="mix-blend-mode: normal"><g transform="scale(4.2666,4.2666)"><path d="M16.93555,0.00195c-0.12963,0.00836 -0.25956,0.04127 -0.38281,0.10352c-0.494,0.247 -0.69427,0.8478 -0.44727,1.3418l7,14c0.175,0.351 0.52948,0.55469 0.89648,0.55469c0.15,0 0.30131,-0.03542 0.44531,-0.10742c0.494,-0.247 0.69427,-0.8478 0.44727,-1.3418l-7,-14c-0.18525,-0.3705 -0.57011,-0.57586 -0.95898,-0.55078zM30,0.00195c-0.552,0 -1,0.448 -1,1v7c0,0.552 0.448,1 1,1c0.552,0 1,-0.448 1,-1v-7c0,-0.552 -0.448,-1 -1,-1zM43.06445,0.00195c-0.38887,-0.02517 -0.77373,0.18148 -0.95898,0.55273l-7,14c-0.247,0.494 -0.04673,1.0948 0.44727,1.3418c0.144,0.071 0.29531,0.10547 0.44531,0.10547c0.367,0 0.72148,-0.20273 0.89648,-0.55273l7,-14c0.247,-0.494 0.04673,-1.0948 -0.44727,-1.3418c-0.12325,-0.062 -0.25319,-0.09708 -0.38281,-0.10547zM30,11.00195c-0.552,0 -1,0.448 -1,1v2c0,0.552 0.448,1 1,1c0.552,0 1,-0.448 1,-1v-2c0,-0.552 -0.448,-1 -1,-1zM15,14c-0.256,0 -0.51203,0.09942 -0.70703,0.29492c-0.391,0.391 -0.391,1.02111 0,1.41211l3,3c0.195,0.195 0.45103,0.29492 0.70703,0.29492c0.256,0 0.51203,-0.09992 0.70703,-0.29492c0.391,-0.391 0.391,-1.02111 0,-1.41211l-3,-3c-0.195,-0.1955 -0.45103,-0.29492 -0.70703,-0.29492zM45,14c-0.256,0 -0.51203,0.09942 -0.70703,0.29492l-3,3c-0.391,0.391 -0.391,1.02111 0,1.41211c0.195,0.195 0.45103,0.29492 0.70703,0.29492c0.256,0 0.51203,-0.09992 0.70703,-0.29492l3,-3c0.391,-0.391 0.391,-1.02111 0,-1.41211c-0.195,-0.1955 -0.45103,-0.29492 -0.70703,-0.29492zM1.0332,16c-0.38967,-0.01266 -0.76816,0.20628 -0.94141,0.58203c-0.231,0.501 -0.01272,1.09517 0.48828,1.32617l13,6c0.135,0.063 0.27797,0.09375 0.41797,0.09375c0.379,0 0.74116,-0.21603 0.91016,-0.58203c0.231,-0.501 0.01272,-1.09517 -0.48828,-1.32617l-13,-6c-0.1255,-0.05825 -0.25683,-0.08953 -0.38672,-0.09375zM58.9668,16c-0.12977,0.00422 -0.26147,0.0355 -0.38672,0.09375l-13,6c-0.501,0.231 -0.71928,0.82517 -0.48828,1.32617c0.169,0.366 0.53216,0.58203 0.91016,0.58203c0.14,0 0.28297,-0.03075 0.41797,-0.09375l13,-6c0.501,-0.231 0.72028,-0.82517 0.48828,-1.32617c-0.174,-0.37575 -0.55211,-0.59469 -0.94141,-0.58203zM30,17.00195c-7.168,0 -13,5.832 -13,13c0,7.168 5.832,13 13,13c7.168,0 13,-5.832 13,-13c0,-7.168 -5.832,-13 -13,-13zM30,19.00195c6.066,0 11,4.935 11,11c0,6.065 -4.935,11 -11,11c-6.065,0 -11,-4.935 -11,-11c0,-6.065 4.935,-11 11,-11zM30,21.00195c-4.963,0 -9,4.038 -9,9c0,0.552 0.448,1 1,1c0.552,0 1,-0.448 1,-1c0,-3.86 3.14,-7 7,-7c0.552,0 1,-0.448 1,-1c0,-0.552 -0.448,-1 -1,-1zM1,29.00195c-0.552,0 -1,0.448 -1,1c0,0.552 0.448,1 1,1h7c0.552,0 1,-0.448 1,-1c0,-0.552 -0.448,-1 -1,-1zM12,29.00195c-0.552,0 -1,0.448 -1,1c0,0.552 0.448,1 1,1h2c0.552,0 1,-0.448 1,-1c0,-0.552 -0.448,-1 -1,-1zM46,29.00195c-0.552,0 -1,0.448 -1,1c0,0.552 0.448,1 1,1h2c0.552,0 1,-0.448 1,-1c0,-0.552 -0.448,-1 -1,-1zM52,29.00195c-0.552,0 -1,0.448 -1,1c0,0.552 0.448,1 1,1h7c0.552,0 1,-0.448 1,-1c0,-0.552 -0.448,-1 -1,-1zM15.27148,35.25781c-0.12991,0.00027 -0.26142,0.02778 -0.38867,0.08203l-11.96289,5.08398c-0.508,0.217 -0.7453,0.80255 -0.5293,1.31055c0.162,0.38 0.53092,0.60938 0.91992,0.60938c0.13,0 0.26363,-0.02608 0.39063,-0.08008l11.96484,-5.08398c0.508,-0.217 0.7453,-0.8045 0.5293,-1.3125c-0.16275,-0.381 -0.53411,-0.61017 -0.92383,-0.60938zM44.72852,35.25781c-0.39009,-0.00089 -0.75988,0.22567 -0.92187,0.60742c-0.216,0.509 0.0213,1.0965 0.5293,1.3125l11.96484,5.08398c0.128,0.054 0.26062,0.08008 0.39063,0.08008c0.389,0 0.75792,-0.22837 0.91992,-0.60937c0.216,-0.509 -0.0213,-1.0965 -0.5293,-1.3125l-11.96484,-5.08203c-0.1275,-0.054 -0.25864,-0.07978 -0.38867,-0.08008zM18,41c-0.256,0 -0.51203,0.09942 -0.70703,0.29492l-3,3c-0.391,0.391 -0.391,1.02111 0,1.41211c0.195,0.195 0.45103,0.29492 0.70703,0.29492c0.256,0 0.51203,-0.09992 0.70703,-0.29492l3,-3c0.391,-0.391 0.391,-1.02111 0,-1.41211c-0.195,-0.1955 -0.45103,-0.29492 -0.70703,-0.29492zM42,41c-0.256,0 -0.51203,0.09942 -0.70703,0.29492c-0.391,0.391 -0.391,1.02111 0,1.41211l3,3c0.195,0.195 0.45103,0.29492 0.70703,0.29492c0.256,0 0.51203,-0.09992 0.70703,-0.29492c0.391,-0.391 0.391,-1.02111 0,-1.41211l-3,-3c-0.195,-0.1955 -0.45103,-0.29492 -0.70703,-0.29492zM23.74609,43.72656c-0.38995,-0.0008 -0.76183,0.22837 -0.92383,0.60938l-5.08203,11.96484c-0.216,0.509 0.0213,1.0965 0.5293,1.3125c0.128,0.054 0.26063,0.08008 0.39063,0.08008c0.389,0 0.75792,-0.22937 0.91992,-0.60937l5.08398,-11.96484c0.216,-0.509 -0.0213,-1.0965 -0.5293,-1.3125c-0.12725,-0.05425 -0.25869,-0.07981 -0.38867,-0.08008zM36.25586,43.72656c-0.12991,0.00022 -0.26142,0.02608 -0.38867,0.08008c-0.508,0.217 -0.7453,0.8045 -0.5293,1.3125l5.08398,11.96289c0.162,0.38 0.53287,0.60938 0.92188,0.60938c0.13,0 0.26262,-0.02608 0.39063,-0.08008c0.508,-0.217 0.7453,-0.80255 0.5293,-1.31055l-5.08398,-11.96484c-0.16275,-0.381 -0.53411,-0.61003 -0.92383,-0.60938zM30,45.00195c-0.552,0 -1,0.448 -1,1v2c0,0.552 0.448,1 1,1c0.552,0 1,-0.448 1,-1v-2c0,-0.552 -0.448,-1 -1,-1zM30,51.00195c-0.552,0 -1,0.448 -1,1v7c0,0.552 0.448,1 1,1c0.552,0 1,-0.448 1,-1v-7c0,-0.552 -0.448,-1 -1,-1z"></path></g></g></svg>