<svg xmlns="http://www.w3.org/2000/svg" xmlns:xlink="http://www.w3.org/1999/xlink" viewBox="0,0,256,256" width="100px" height="100px"><g fill="#229042" fill-rule="nonzero" stroke="none" stroke-width="1" stroke-linecap="butt" stroke-linejoin="miter" stroke-miterlimit="10" stroke-dasharray="" stroke-dashoffset="0" font-family="none" font-weight="none" font-size="none" text-anchor="none" style="mix-blend-mode: normal"><g transform="scale(5.12,5.12)"><path d="M33.98438,3.98438c-0.55078,0.01172 -0.99219,0.46484 -0.98437,1.01563v28h-20.65625c9.0625,-5.23828 12.65625,-13.35937 12.65625,-19.5c0,-5.26172 -4.13281,-9.5 -9.40625,-9.5c-5.20312,0 -9.59375,3.71484 -9.59375,9c-0.00391,0.35938 0.18359,0.69531 0.49609,0.87891c0.3125,0.17969 0.69531,0.17969 1.00781,0c0.3125,-0.18359 0.5,-0.51953 0.49609,-0.87891c0,-4.20703 3.30469,-7 7.59375,-7c4.21875,0 7.40625,3.26953 7.40625,7.5c0,6.04688 -4.00391,14.80469 -15.17578,19.51563c-0.51562,0.08594 -0.875,0.55078 -0.83203,1.07422c0.04688,0.51953 0.48438,0.91406 1.00781,0.91016h25v12c-0.00391,0.35938 0.18359,0.69531 0.49609,0.87891c0.3125,0.17969 0.69531,0.17969 1.00781,0c0.3125,-0.18359 0.5,-0.51953 0.49609,-0.87891v-12h10c0.35938,0.00391 0.69531,-0.18359 0.87891,-0.49609c0.17969,-0.3125 0.17969,-0.69531 0,-1.00781c-0.18359,-0.3125 -0.51953,-0.5 -0.87891,-0.49609h-10v-28c0.00391,-0.26953 -0.10156,-0.53125 -0.29297,-0.72266c-0.19141,-0.19141 -0.45312,-0.29688 -0.72266,-0.29297z"></path></g></g></svg>