<svg xmlns="http://www.w3.org/2000/svg" xmlns:xlink="http://www.w3.org/1999/xlink" viewBox="0,0,256,256" width="100px" height="100px"><g fill="#229042" fill-rule="nonzero" stroke="none" stroke-width="1" stroke-linecap="butt" stroke-linejoin="miter" stroke-miterlimit="10" stroke-dasharray="" stroke-dashoffset="0" font-family="none" font-weight="none" font-size="none" text-anchor="none" style="mix-blend-mode: normal"><g transform="scale(5.12,5.12)"><path d="M43.98438,4.98438c-0.04687,0.00391 -0.09766,0.00781 -0.14453,0.01563h-13.83984c-0.35937,-0.00391 -0.69531,0.18359 -0.87891,0.49609c-0.17969,0.3125 -0.17969,0.69531 0,1.00781c0.18359,0.3125 0.51953,0.5 0.87891,0.49609h11.58594l-13.44922,13.44922c-5.49219,-4.78516 -13.85156,-4.57422 -19.07812,0.65234c-5.45703,5.46094 -5.46094,14.33984 0,19.80078c5.46094,5.45703 14.33984,5.45703 19.80078,0c5.21094,-5.21484 5.43359,-13.54297 0.6875,-19.03906l13.45313,-13.44922v11.58594c-0.00391,0.35938 0.18359,0.69531 0.49609,0.87891c0.3125,0.17969 0.69531,0.17969 1.00781,0c0.3125,-0.18359 0.5,-0.51953 0.49609,-0.87891v-13.83203c0.01953,-0.125 0.01563,-0.25391 -0.01172,-0.37891c0.00391,0 0.00391,0 0,0c-0.00391,-0.03516 -0.01172,-0.06641 -0.02344,-0.09375c-0.00391,-0.01953 -0.01172,-0.03906 -0.01562,-0.05469c-0.00781,-0.01562 -0.01172,-0.02734 -0.01562,-0.03906c-0.00391,-0.00391 -0.00391,-0.00391 -0.00391,-0.00391c-0.01172,-0.03125 -0.02734,-0.05859 -0.04297,-0.08984c-0.11328,-0.20312 -0.29297,-0.36328 -0.51172,-0.44922c0,0 -0.00391,0 -0.00391,-0.00391c-0.03125,-0.00781 -0.05859,-0.01953 -0.08984,-0.02734c0,0 -0.00391,0 -0.00391,-0.00391c-0.03125,-0.00781 -0.0625,-0.01562 -0.09375,-0.01953c-0.06641,-0.01172 -0.13281,-0.01953 -0.19922,-0.01953zM18.95703,18.99609c3.07031,-0.00391 6.14063,1.17188 8.48438,3.51953c4.69531,4.69531 4.69531,12.27734 0,16.96875c-4.69141,4.69531 -12.27344,4.69531 -16.96875,0c-4.69531,-4.69141 -4.69531,-12.27344 0,-16.96875c2.34766,-2.34766 5.41406,-3.51953 8.48438,-3.51953z"></path></g></g></svg>