<svg xmlns="http://www.w3.org/2000/svg" xmlns:xlink="http://www.w3.org/1999/xlink" viewBox="0,0,256,256" width="100px" height="100px"><g fill="#e0b644" fill-rule="nonzero" stroke="none" stroke-width="1" stroke-linecap="butt" stroke-linejoin="miter" stroke-miterlimit="10" stroke-dasharray="" stroke-dashoffset="0" font-family="none" font-weight="none" font-size="none" text-anchor="none" style="mix-blend-mode: normal"><g transform="scale(5.12,5.12)"><path d="M15.8125,0.97656c-0.33984,0.00391 -0.65234,0.17969 -0.83203,0.46875c-0.18359,0.28516 -0.20312,0.64844 -0.05859,0.95313c1.04297,2.39062 2.91406,4.33203 5.24609,5.47656c-5.34375,1.97656 -9.16797,7.10547 -9.16797,13.125c0,7.38281 5.74609,13.43359 13,13.94922v5.05078h-5c-0.35937,-0.00391 -0.69531,0.18359 -0.87891,0.49609c-0.17969,0.3125 -0.17969,0.69531 0,1.00781c0.18359,0.3125 0.51953,0.5 0.87891,0.49609h5v5c-0.00391,0.35938 0.18359,0.69531 0.49609,0.87891c0.3125,0.17969 0.69531,0.17969 1.00781,0c0.3125,-0.18359 0.5,-0.51953 0.49609,-0.87891v-5h5c0.35938,0.00391 0.69531,-0.18359 0.87891,-0.49609c0.17969,-0.3125 0.17969,-0.69531 0,-1.00781c-0.18359,-0.3125 -0.51953,-0.5 -0.87891,-0.49609h-5v-5.05078c7.25391,-0.51562 13,-6.56641 13,-13.94922c0,-6.01953 -3.82422,-11.14844 -9.16797,-13.125c2.33203,-1.14453 4.20313,-3.08594 5.24609,-5.47656c0.14063,-0.30859 0.11328,-0.66797 -0.07031,-0.95312c-0.18359,-0.28906 -0.50391,-0.46094 -0.84375,-0.46094c-0.40234,0.00391 -0.76172,0.24609 -0.91797,0.61719c-1.38672,3.17187 -4.54687,5.39844 -8.24609,5.39844c-3.69922,0 -6.85937,-2.22656 -8.24609,-5.39844c-0.15625,-0.38281 -0.52734,-0.63281 -0.94141,-0.625zM25,9c6.64063,0 12,5.35938 12,12c0,6.60156 -5.30078,11.93359 -11.88672,11.99609c-0.04297,-0.00781 -0.08594,-0.01172 -0.12891,-0.01172c-0.03516,0.00391 -0.07031,0.00391 -0.10937,0.01172c-6.57812,-0.07031 -11.875,-5.39844 -11.875,-11.99609c0,-6.64062 5.35938,-12 12,-12z"></path></g></g></svg>