<svg width="71" height="44" viewBox="0 0 71 44" fill="none" xmlns="http://www.w3.org/2000/svg">
<path d="M18.312 30.228L8.206 17.27V43H0.208V0.84H5.292L19.552 20.308L32.51 0.84H37.408V43H29.286V18.696L21.412 29.794L18.312 30.228ZM60.6953 19.006C58.422 19.006 56.6446 19.874 55.3633 21.61C54.082 23.3047 53.4413 25.4333 53.4413 27.996C53.4413 30.6 54.082 32.7287 55.3633 34.382C56.6446 36.0353 58.422 36.862 60.6953 36.862C62.1006 36.862 63.3613 36.6967 64.4773 36.366C65.6346 35.994 66.9366 35.4773 68.3833 34.816L70.6773 40.644C69.272 41.7187 67.5566 42.504 65.5313 43C63.5473 43.496 61.9146 43.744 60.6333 43.744C55.756 43.744 51.9533 42.318 49.2253 39.466C46.4973 36.614 45.1333 32.7907 45.1333 27.996C45.1333 23.2013 46.4973 19.3573 49.2253 16.464C51.9533 13.5707 55.756 12.124 60.6333 12.124C61.9146 12.124 63.5266 12.3927 65.4693 12.93C67.4533 13.4673 69.1893 14.2527 70.6773 15.286L68.3833 21.052C66.9366 20.3907 65.6346 19.8947 64.4773 19.564C63.3613 19.192 62.1006 19.006 60.6953 19.006Z" fill="#E0B644"/>
</svg>
