<svg xmlns="http://www.w3.org/2000/svg" xmlns:xlink="http://www.w3.org/1999/xlink" viewBox="0,0,256,256" width="100px" height="100px"><g fill="#229042" fill-rule="nonzero" stroke="none" stroke-width="1" stroke-linecap="butt" stroke-linejoin="miter" stroke-miterlimit="10" stroke-dasharray="" stroke-dashoffset="0" font-family="none" font-weight="none" font-size="none" text-anchor="none" style="mix-blend-mode: normal"><g transform="scale(5.12,5.12)"><path d="M8.98438,2.98438c-0.55078,0.01172 -0.99219,0.46484 -0.98437,1.01563v10c0,9.00781 7.11719,16.42188 16,16.94922v7.05078h-6c-0.35937,-0.00391 -0.69531,0.18359 -0.87891,0.49609c-0.17969,0.3125 -0.17969,0.69531 0,1.00781c0.18359,0.3125 0.51953,0.5 0.87891,0.49609h6v6c-0.00391,0.35938 0.18359,0.69531 0.49609,0.87891c0.3125,0.17969 0.69531,0.17969 1.00781,0c0.3125,-0.18359 0.5,-0.51953 0.49609,-0.87891v-6h6c0.35938,0.00391 0.69531,-0.18359 0.87891,-0.49609c0.17969,-0.3125 0.17969,-0.69531 0,-1.00781c-0.18359,-0.3125 -0.51953,-0.5 -0.87891,-0.49609h-6v-7.05078c8.88281,-0.52734 16,-7.94141 16,-16.94922v-10c0.00391,-0.35937 -0.18359,-0.69531 -0.49609,-0.87891c-0.3125,-0.17969 -0.69531,-0.17969 -1.00781,0c-0.3125,0.18359 -0.5,0.51953 -0.49609,0.87891v10c0,7.91797 -6.21094,14.42969 -14,14.94922v-24.94922c0.00391,-0.26953 -0.10156,-0.53125 -0.29297,-0.72266c-0.19141,-0.19141 -0.45312,-0.29687 -0.72266,-0.29297c-0.55078,0.01172 -0.99219,0.46484 -0.98437,1.01563v24.94922c-7.78906,-0.51953 -14,-7.03125 -14,-14.94922v-10c0.00391,-0.26953 -0.10156,-0.53125 -0.29297,-0.72266c-0.19141,-0.19141 -0.45312,-0.29687 -0.72266,-0.29297z"></path></g></g></svg>