<svg xmlns="http://www.w3.org/2000/svg" xmlns:xlink="http://www.w3.org/1999/xlink" viewBox="0,0,256,256" width="100px" height="100px"><g fill="#229042" fill-rule="nonzero" stroke="none" stroke-width="1" stroke-linecap="butt" stroke-linejoin="miter" stroke-miterlimit="10" stroke-dasharray="" stroke-dashoffset="0" font-family="none" font-weight="none" font-size="none" text-anchor="none" style="mix-blend-mode: normal"><g transform="scale(5.12,5.12)"><path d="M25,0c-5.876,0 -10.65625,4.78025 -10.65625,10.65625c0,5.876 4.78025,10.65625 10.65625,10.65625c5.876,0 10.65625,-4.78025 10.65625,-10.65625c0,-5.876 -4.78025,-10.65625 -10.65625,-10.65625zM25,2c4.773,0 8.65625,3.88325 8.65625,8.65625c0,4.773 -3.88325,8.65625 -8.65625,8.65625c-4.773,0 -8.65625,-3.88325 -8.65625,-8.65625c0,-4.773 3.88325,-8.65625 8.65625,-8.65625zM7.75586,9.65625c-0.553,0 -1,0.447 -1,1c0,9.72158 7.65008,17.66953 17.24414,18.19336v9.15039h-8c-0.553,0 -1,0.447 -1,1c0,0.553 0.447,1 1,1h8v9c0,0.553 0.447,1 1,1c0.553,0 1,-0.447 1,-1v-9h8c0.553,0 1,-0.447 1,-1c0,-0.553 -0.447,-1 -1,-1h-8v-9.15039c9.59406,-0.52377 17.24414,-8.47081 17.24414,-18.19336c0,-0.553 -0.447,-1 -1,-1c-0.553,0 -1,0.447 -1,1c0,8.957 -7.28714,16.24414 -16.24414,16.24414c-8.957,0 -16.24414,-7.28714 -16.24414,-16.24414c0,-0.553 -0.447,-1 -1,-1z"></path></g></g></svg>