<svg width="66" height="44" viewBox="0 0 66 44" fill="none" xmlns="http://www.w3.org/2000/svg">
<path d="M20.026 11.876L14.508 26.57H25.668L20.026 11.876ZM23.622 0.84L39.99 41.884L31.93 43L28.148 33.08H12.152L8.432 43H0.372L16.802 0.84H23.622ZM61.8988 21.052C60.4521 20.3907 59.1088 19.8947 57.8688 19.564C56.6288 19.192 55.3061 19.006 53.9008 19.006C52.8674 19.006 52.0614 19.2127 51.4828 19.626C50.9454 19.998 50.6768 20.5353 50.6768 21.238C50.6768 21.734 51.0074 22.2093 51.6688 22.664C52.3714 23.1187 53.4874 23.6147 55.0168 24.152C57.5381 25.0613 59.8734 26.3427 62.0228 27.996C64.1721 29.608 65.2468 31.716 65.2468 34.32C65.2468 37.296 64.1721 39.6107 62.0228 41.264C59.9148 42.9173 56.8148 43.744 52.7228 43.744C51.4414 43.744 49.7261 43.496 47.5768 43C45.4688 42.504 43.7121 41.7187 42.3068 40.644L44.7248 34.816C46.1714 35.4773 47.5561 35.994 48.8788 36.366C50.2428 36.6967 51.4828 36.862 52.5988 36.862C54.0868 36.862 55.2234 36.6553 56.0088 36.242C56.7941 35.8287 57.1868 35.2913 57.1868 34.63C57.1868 33.8033 56.7941 33.0593 56.0088 32.398C55.2234 31.7367 53.9834 31.1373 52.2888 30.6C49.8914 29.8147 47.6181 28.6987 45.4688 27.252C43.3608 25.764 42.3068 23.78 42.3068 21.3C42.3068 18.448 43.3608 16.216 45.4688 14.604C47.5768 12.9507 50.4288 12.124 54.0248 12.124C55.3061 12.124 56.9594 12.3927 58.9848 12.93C61.0101 13.4673 62.7874 14.2527 64.3168 15.286L61.8988 21.052Z" fill="#E0B644"/>
</svg>
