<svg xmlns="http://www.w3.org/2000/svg" xmlns:xlink="http://www.w3.org/1999/xlink" viewBox="0,0,256,256" width="100px" height="100px"><g fill="#e0b644" fill-rule="nonzero" stroke="none" stroke-width="1" stroke-linecap="butt" stroke-linejoin="miter" stroke-miterlimit="10" stroke-dasharray="" stroke-dashoffset="0" font-family="none" font-weight="none" font-size="none" text-anchor="none" style="mix-blend-mode: normal"><g transform="scale(5.12,5.12)"><path d="M15.98438,0.98438c-0.55078,0.01172 -0.99219,0.46484 -0.98437,1.01563v9h-9c-0.35937,-0.00391 -0.69531,0.18359 -0.87891,0.49609c-0.17969,0.3125 -0.17969,0.69531 0,1.00781c0.18359,0.3125 0.51953,0.5 0.87891,0.49609h9v30c-0.00391,0.35938 0.18359,0.69531 0.49609,0.87891c0.3125,0.17969 0.69531,0.17969 1.00781,0c0.3125,-0.18359 0.5,-0.51953 0.49609,-0.87891v-12.5c0,-4.12891 3.37109,-7.5 7.5,-7.5c4.12891,0 7.5,3.37109 7.5,7.5v11.5c0,3.84375 3.15625,7 7,7c1.78516,0 3.42969,-0.68359 4.66797,-1.79687c0.28125,-0.23047 0.41406,-0.60156 0.34375,-0.96094c-0.07031,-0.36328 -0.33203,-0.65234 -0.68359,-0.76172c-0.35156,-0.10937 -0.73437,-0.01953 -0.99609,0.23828c-0.88672,0.79688 -2.05078,1.28125 -3.33203,1.28125c-2.75391,0 -5,-2.24609 -5,-5v-11.5c0,-5.21875 -4.28125,-9.5 -9.5,-9.5c-3.04297,0 -5.75781,1.46094 -7.5,3.70313v-11.70312h9c0.35938,0.00391 0.69531,-0.18359 0.87891,-0.49609c0.17969,-0.3125 0.17969,-0.69531 0,-1.00781c-0.18359,-0.3125 -0.51953,-0.5 -0.87891,-0.49609h-9v-9c0.00391,-0.26953 -0.10156,-0.53125 -0.29297,-0.72266c-0.19141,-0.19141 -0.45312,-0.29687 -0.72266,-0.29297z"></path></g></g></svg>