<svg xmlns="http://www.w3.org/2000/svg" xmlns:xlink="http://www.w3.org/1999/xlink" viewBox="0,0,256,256" width="196px" height="196px"><g fill="#229042" fill-rule="nonzero" stroke="none" stroke-width="1" stroke-linecap="butt" stroke-linejoin="miter" stroke-miterlimit="10" stroke-dasharray="" stroke-dashoffset="0" font-family="none" font-weight="none" font-size="none" text-anchor="none" style="mix-blend-mode: normal"><g transform="scale(4.26667,4.26667)"><path d="M51,0c-2.021,0 -3.8148,1.22348 -4.5918,3.02148c-2.345,-0.245 -4.4082,1.63752 -4.4082,3.97852c0,2.206 1.794,4 4,4h10c2.206,0 4,-1.794 4,-4c0,-2.341 -2.0602,-4.22252 -4.4082,-3.97852c-0.777,-1.798 -2.5708,-3.02148 -4.5918,-3.02148zM51,2c1.424,0 2.66045,1.0113 2.93945,2.4043c0.059,0.289 0.241,0.53964 0.5,0.68164c0.259,0.142 0.5668,0.16069 0.8418,0.05469c1.381,-0.533 2.71875,0.52137 2.71875,1.85938c0,1.103 -0.897,2 -2,2h-10c-1.103,0 -2,-0.897 -2,-2c0,-1.103 0.897,-2 2,-2c0.235,0 0.47775,0.04662 0.71875,0.14063c0.275,0.106 0.5828,0.08731 0.8418,-0.05469c0.259,-0.142 0.442,-0.39264 0.5,-0.68164c0.28,-1.393 1.51545,-2.4043 2.93945,-2.4043zM9,5c-2.021,0 -3.8148,1.22348 -4.5918,3.02148c-2.346,-0.251 -4.4082,1.63752 -4.4082,3.97852c0,2.206 1.794,4 4,4h10c2.206,0 4,-1.794 4,-4c0,-2.341 -2.0612,-4.22852 -4.4082,-3.97852c-0.777,-1.798 -2.5708,-3.02148 -4.5918,-3.02148zM9,7c1.424,0 2.66045,1.0113 2.93945,2.4043c0.059,0.289 0.241,0.53964 0.5,0.68164c0.259,0.141 0.5668,0.15969 0.8418,0.05469c1.381,-0.533 2.71875,0.52138 2.71875,1.85938c0,1.103 -0.897,2 -2,2h-10c-1.103,0 -2,-0.897 -2,-2c0,-1.103 0.897,-2 2,-2c0.235,0 0.47775,0.04663 0.71875,0.14063c0.275,0.106 0.5828,0.08731 0.8418,-0.05469c0.259,-0.142 0.442,-0.39264 0.5,-0.68164c0.28,-1.393 1.51545,-2.4043 2.93945,-2.4043zM30,10c-0.552,0 -1,0.448 -1,1v6c0,0.552 0.448,1 1,1c0.552,0 1,-0.448 1,-1v-6c0,-0.552 -0.448,-1 -1,-1zM11,18c-0.256,0 -0.51203,0.09747 -0.70703,0.29297c-0.391,0.391 -0.391,1.02306 0,1.41406l4,4c0.195,0.195 0.45103,0.29297 0.70703,0.29297c0.256,0 0.51203,-0.09797 0.70703,-0.29297c0.391,-0.391 0.391,-1.02306 0,-1.41406l-4,-4c-0.195,-0.1955 -0.45103,-0.29297 -0.70703,-0.29297zM49,18c-0.256,0 -0.51203,0.09747 -0.70703,0.29297l-4,4c-0.391,0.391 -0.391,1.02306 0,1.41406c0.195,0.195 0.45103,0.29297 0.70703,0.29297c0.256,0 0.51203,-0.09797 0.70703,-0.29297l4,-4c0.391,-0.391 0.391,-1.02306 0,-1.41406c-0.195,-0.1955 -0.45103,-0.29297 -0.70703,-0.29297zM30,20c-9.925,0 -18,8.075 -18,18c0,1.34993 0.15117,2.68997 0.44922,4h-11.44922c-0.552,0 -1,0.448 -1,1c0,0.552 0.448,1 1,1h12.75h32.5h12.75c0.552,0 1,-0.448 1,-1c0,-0.552 -0.448,-1 -1,-1h-11.44922c0.29805,-1.31003 0.44922,-2.65007 0.44922,-4c0,-9.925 -8.075,-18 -18,-18zM30,22c8.823,0 16,7.178 16,16c0,1.353 -0.17081,2.695 -0.50781,4h-30.98633c-0.336,-1.305 -0.50586,-2.647 -0.50586,-4c0,-8.822 7.177,-16 16,-16zM29.99609,24c-2.801,0 -5.33802,0.72811 -7.54102,2.16211c-0.463,0.301 -0.59397,0.91981 -0.29297,1.38281c0.192,0.295 0.51284,0.45508 0.83984,0.45508c0.187,0 0.37497,-0.05211 0.54297,-0.16211c1.874,-1.22 4.04417,-1.83789 6.45117,-1.83789h0.00391c0.552,0 1,-0.448 1,-1c0,-0.552 -0.448,-1 -1,-1zM19.14258,30.00977c-0.38587,-0.05522 -0.78625,0.12061 -1,0.47461c-1.342,2.23 -2.14258,5.03863 -2.14258,7.51563c0,0.552 0.448,1 1,1c0.552,0 1,-0.448 1,-1c0,-2.097 0.71142,-4.58142 1.85742,-6.48242c0.285,-0.474 0.1312,-1.08805 -0.3418,-1.37305c-0.11825,-0.0715 -0.24442,-0.11636 -0.37305,-0.13477zM3,37c-0.552,0 -1,0.448 -1,1c0,0.552 0.448,1 1,1h6c0.552,0 1,-0.448 1,-1c0,-0.552 -0.448,-1 -1,-1zM51,37c-0.552,0 -1,0.448 -1,1c0,0.552 0.448,1 1,1h6c0.552,0 1,-0.448 1,-1c0,-0.552 -0.448,-1 -1,-1zM30,46c-0.13114,0 -0.26182,0.02682 -0.38477,0.07813c-0.12101,0.05067 -0.23089,0.12347 -0.32227,0.21484l-5,5c-0.391,0.391 -0.391,1.02306 0,1.41406c0.195,0.195 0.45103,0.29297 0.70703,0.29297c0.256,0 0.51203,-0.09797 0.70703,-0.29297l3.29297,-3.29297v9.58594c0,0.552 0.448,1 1,1c0.552,0 1,-0.448 1,-1v-9.58594l3.29297,3.29297c0.195,0.195 0.45103,0.29297 0.70703,0.29297c0.256,0 0.51203,-0.09797 0.70703,-0.29297c0.391,-0.391 0.391,-1.02306 0,-1.41406l-5,-5c-0.09137,-0.09137 -0.20125,-0.16417 -0.32227,-0.21484c-0.12294,-0.0513 -0.25362,-0.07812 -0.38477,-0.07812z"></path></g></g></svg>