<svg xmlns="http://www.w3.org/2000/svg" xmlns:xlink="http://www.w3.org/1999/xlink" viewBox="0,0,256,256" width="100px" height="100px"><g fill="#e0b644" fill-rule="nonzero" stroke="none" stroke-width="1" stroke-linecap="butt" stroke-linejoin="miter" stroke-miterlimit="10" stroke-dasharray="" stroke-dashoffset="0" font-family="none" font-weight="none" font-size="none" text-anchor="none" style="mix-blend-mode: normal"><g transform="scale(5.12,5.12)"><path d="M24.98438,2.98438c-0.55078,0.01172 -0.99219,0.46484 -0.98437,1.01563v13h-4.04297c-0.43359,-6.875 -5.30078,-12.53516 -11.73828,-13.97656c-0.09766,-0.02344 -0.19922,-0.03125 -0.29687,-0.02344c-0.50391,0.02734 -0.90625,0.42578 -0.94141,0.92578c-0.03516,0.5 0.30859,0.94922 0.80078,1.05078c5.82813,1.30469 10.21875,6.61719 10.21875,13.02344c0,6.40625 -4.39062,11.71875 -10.21875,13.02344c-0.53906,0.12109 -0.87891,0.65625 -0.75781,1.19531c0.12109,0.53906 0.65625,0.87891 1.19531,0.75781c6.4375,-1.44141 11.30469,-7.10156 11.73828,-13.97656h4.04297v14c0,0.02734 0,0.05469 0.00391,0.07813c-3.38281,0.48828 -6.00391,3.40625 -6.00391,6.92188c0,3.85547 3.14453,7 7,7c3.85547,0 7,-3.14453 7,-7c0,-3.51562 -2.61719,-6.42969 -6,-6.92187c0,-0.02344 0,-0.05078 0,-0.07812v-14h4.04297c0.43359,6.875 5.30078,12.53516 11.73828,13.97656c0.53906,0.12109 1.07422,-0.21875 1.19531,-0.75781c0.12109,-0.53906 -0.21875,-1.07422 -0.75781,-1.19531c-5.82812,-1.30469 -10.21875,-6.61719 -10.21875,-13.02344c0,-6.40625 4.39063,-11.71875 10.21875,-13.02344c0.51953,-0.10156 0.87109,-0.58984 0.79688,-1.11719c-0.07031,-0.52344 -0.53906,-0.90234 -1.06641,-0.85937c-0.05469,0 -0.11328,0.01172 -0.16797,0.02344c-6.4375,1.44141 -11.30469,7.10156 -11.73828,13.97656h-4.04297v-13c0.00391,-0.26953 -0.10156,-0.53125 -0.29297,-0.72266c-0.19141,-0.19141 -0.45312,-0.29687 -0.72266,-0.29297zM25,35c2.77344,0 5,2.22656 5,5c0,2.77344 -2.22656,5 -5,5c-2.77344,0 -5,-2.22656 -5,-5c0,-2.77344 2.22656,-5 5,-5z"></path></g></g></svg>