<svg xmlns="http://www.w3.org/2000/svg" xmlns:xlink="http://www.w3.org/1999/xlink" viewBox="0,0,256,256" width="100px" height="100px"><g fill="#e0b644" fill-rule="nonzero" stroke="none" stroke-width="1" stroke-linecap="butt" stroke-linejoin="miter" stroke-miterlimit="10" stroke-dasharray="" stroke-dashoffset="0" font-family="none" font-weight="none" font-size="none" text-anchor="none" style="mix-blend-mode: normal"><g transform="scale(5.12,5.12)"><path d="M25,1c-7.71875,0 -14,6.28125 -14,14c0,7.38281 5.74609,13.43359 13,13.94922v8.05078h-9c-0.35937,-0.00391 -0.69531,0.18359 -0.87891,0.49609c-0.17969,0.3125 -0.17969,0.69531 0,1.00781c0.18359,0.3125 0.51953,0.5 0.87891,0.49609h9v8c-0.00391,0.35938 0.18359,0.69531 0.49609,0.87891c0.3125,0.17969 0.69531,0.17969 1.00781,0c0.3125,-0.18359 0.5,-0.51953 0.49609,-0.87891v-8h9c0.35938,0.00391 0.69531,-0.18359 0.87891,-0.49609c0.17969,-0.3125 0.17969,-0.69531 0,-1.00781c-0.18359,-0.3125 -0.51953,-0.5 -0.87891,-0.49609h-9v-8.05078c7.25391,-0.51562 13,-6.56641 13,-13.94922c0,-7.71875 -6.28125,-14 -14,-14zM25,3c6.64063,0 12,5.35938 12,12c0,6.60156 -5.30078,11.93359 -11.88672,11.99609c-0.04297,-0.00781 -0.08594,-0.01172 -0.12891,-0.01172c-0.03516,0.00391 -0.07031,0.00391 -0.10937,0.01172c-6.57812,-0.07031 -11.875,-5.39844 -11.875,-11.99609c0,-6.64062 5.35938,-12 12,-12z"></path></g></g></svg>