<svg width="1306" height="230" viewBox="0 0 1306 230" fill="none" xmlns="http://www.w3.org/2000/svg">
<rect width="1306" height="230" rx="20" fill="#D9D9D9"/>
<rect x="33" y="15" width="200" height="200" fill="#1DB954"/>
<rect x="293" y="15" width="200" height="200" fill="#1E1E1E"/>
<rect x="553" y="15" width="200" height="200" fill="#BA231E"/>
<rect x="813" y="15" width="200" height="200" fill="#631310"/>
<rect x="1073" y="15" width="200" height="200" fill="#0F0E0E"/>
<path d="M63.2244 129L67.7585 101.364H70.4574L65.9233 129H63.2244ZM50.6477 121.335L51.0795 118.636H71.6989L71.267 121.335H50.6477ZM53.5085 129L58.0426 101.364H60.7415L56.2074 129H53.5085ZM52.267 111.727L52.6989 109.028H73.3182L72.8864 111.727H52.267ZM86.5494 101.364V129H83.2028V104.872H83.0408L76.2937 109.352V105.952L83.2028 101.364H86.5494ZM103.512 129H94.9833V101.364H103.89C106.57 101.364 108.864 101.917 110.772 103.023C112.679 104.121 114.141 105.7 115.157 107.76C116.174 109.811 116.682 112.267 116.682 115.128C116.682 118.007 116.169 120.485 115.144 122.563C114.118 124.632 112.625 126.225 110.664 127.34C108.703 128.447 106.319 129 103.512 129ZM98.3299 126.031H103.296C105.581 126.031 107.475 125.59 108.977 124.709C110.479 123.827 111.599 122.572 112.337 120.944C113.075 119.316 113.444 117.377 113.444 115.128C113.444 112.897 113.079 110.976 112.35 109.366C111.622 107.746 110.533 106.505 109.085 105.641C107.636 104.769 105.833 104.332 103.674 104.332H98.3299V126.031ZM122.296 129V101.364H131.958C133.883 101.364 135.471 101.696 136.721 102.362C137.972 103.019 138.903 103.905 139.515 105.021C140.126 106.127 140.432 107.355 140.432 108.705C140.432 109.892 140.221 110.873 139.798 111.646C139.384 112.42 138.835 113.032 138.152 113.482C137.477 113.931 136.744 114.264 135.952 114.48V114.75C136.798 114.804 137.648 115.101 138.502 115.641C139.357 116.18 140.072 116.954 140.648 117.962C141.224 118.969 141.512 120.202 141.512 121.659C141.512 123.045 141.197 124.29 140.567 125.397C139.937 126.504 138.943 127.381 137.585 128.028C136.226 128.676 134.459 129 132.282 129H122.296ZM125.642 126.031H132.282C134.468 126.031 136.02 125.608 136.937 124.763C137.864 123.908 138.327 122.874 138.327 121.659C138.327 120.723 138.089 119.86 137.612 119.068C137.135 118.268 136.456 117.629 135.574 117.152C134.693 116.666 133.649 116.423 132.444 116.423H125.642V126.031ZM125.642 113.509H131.85C132.857 113.509 133.766 113.311 134.576 112.915C135.394 112.519 136.042 111.961 136.519 111.241C137.005 110.522 137.248 109.676 137.248 108.705C137.248 107.49 136.825 106.46 135.979 105.614C135.133 104.76 133.793 104.332 131.958 104.332H125.642V113.509ZM155.323 100.986C156.457 100.995 157.59 101.211 158.724 101.634C159.857 102.056 160.892 102.758 161.827 103.739C162.763 104.71 163.514 106.037 164.081 107.719C164.648 109.402 164.931 111.511 164.931 114.048C164.931 116.504 164.697 118.686 164.229 120.593C163.771 122.491 163.105 124.093 162.232 125.397C161.369 126.701 160.316 127.691 159.075 128.366C157.842 129.04 156.448 129.378 154.891 129.378C153.344 129.378 151.963 129.072 150.749 128.46C149.543 127.839 148.554 126.98 147.78 125.883C147.015 124.776 146.525 123.494 146.309 122.037H149.602C149.898 123.305 150.488 124.353 151.369 125.181C152.26 126 153.434 126.409 154.891 126.409C157.023 126.409 158.706 125.478 159.938 123.616C161.18 121.754 161.8 119.122 161.8 115.722H161.585C161.081 116.477 160.482 117.129 159.79 117.678C159.097 118.227 158.328 118.65 157.482 118.947C156.637 119.244 155.737 119.392 154.783 119.392C153.2 119.392 151.747 119.001 150.425 118.218C149.111 117.426 148.059 116.342 147.267 114.966C146.484 113.58 146.093 111.997 146.093 110.216C146.093 108.525 146.471 106.977 147.227 105.574C147.991 104.161 149.062 103.037 150.438 102.2C151.824 101.364 153.452 100.959 155.323 100.986ZM155.323 103.955C154.19 103.955 153.169 104.238 152.26 104.805C151.36 105.362 150.645 106.118 150.114 107.072C149.593 108.016 149.332 109.064 149.332 110.216C149.332 111.367 149.584 112.415 150.087 113.36C150.6 114.296 151.297 115.042 152.179 115.6C153.07 116.149 154.082 116.423 155.215 116.423C156.07 116.423 156.866 116.257 157.604 115.924C158.341 115.582 158.985 115.119 159.533 114.534C160.091 113.94 160.527 113.27 160.842 112.523C161.157 111.768 161.315 110.981 161.315 110.162C161.315 109.082 161.054 108.07 160.532 107.126C160.019 106.181 159.308 105.416 158.4 104.832C157.5 104.247 156.475 103.955 155.323 103.955ZM178.874 129.378C177.291 129.378 175.865 129.063 174.596 128.433C173.328 127.804 172.311 126.94 171.547 125.842C170.782 124.745 170.364 123.494 170.292 122.091H173.53C173.656 123.341 174.223 124.376 175.231 125.195C176.247 126.004 177.462 126.409 178.874 126.409C180.008 126.409 181.015 126.144 181.897 125.613C182.787 125.082 183.485 124.353 183.988 123.427C184.501 122.491 184.758 121.434 184.758 120.256C184.758 119.05 184.492 117.975 183.961 117.031C183.44 116.077 182.72 115.326 181.802 114.777C180.885 114.228 179.837 113.949 178.658 113.94C177.813 113.931 176.944 114.062 176.054 114.332C175.163 114.593 174.43 114.93 173.854 115.344L170.724 114.966L172.397 101.364H186.755V104.332H175.204L174.232 112.483H174.394C174.961 112.033 175.671 111.66 176.526 111.363C177.381 111.066 178.271 110.918 179.198 110.918C180.889 110.918 182.396 111.322 183.719 112.132C185.05 112.933 186.094 114.03 186.849 115.425C187.614 116.819 187.996 118.411 187.996 120.202C187.996 121.965 187.6 123.539 186.809 124.925C186.026 126.301 184.947 127.39 183.57 128.19C182.194 128.982 180.628 129.378 178.874 129.378ZM192.709 123.332V120.58L204.854 101.364H206.851V105.628H205.502L196.326 120.148V120.364H212.681V123.332H192.709ZM205.718 129V122.496V121.214V101.364H208.902V129H205.718Z" fill="white"/>
<path d="M333.224 129L337.759 101.364H340.457L335.923 129H333.224ZM320.648 121.335L321.08 118.636H341.699L341.267 121.335H320.648ZM323.509 129L328.043 101.364H330.741L326.207 129H323.509ZM322.267 111.727L322.699 109.028H343.318L342.886 111.727H322.267ZM356.549 101.364V129H353.203V104.872H353.041L346.294 109.352V105.952L353.203 101.364H356.549ZM364.983 129V101.364H381.662V104.332H368.33V113.67H380.799V116.639H368.33V126.031H381.878V129H364.983ZM396.924 101.364V129H393.578V104.872H393.416L386.669 109.352V105.952L393.578 101.364H396.924ZM405.358 129V101.364H422.037V104.332H408.705V113.67H421.174V116.639H408.705V126.031H422.253V129H405.358ZM437.299 101.364V129H433.953V104.872H433.791L427.044 109.352V105.952L433.953 101.364H437.299ZM445.733 129V101.364H462.412V104.332H449.08V113.67H461.549V116.639H449.08V126.031H462.628V129H445.733Z" fill="white"/>
<path d="M583.224 129L587.759 101.364H590.457L585.923 129H583.224ZM570.648 121.335L571.08 118.636H591.699L591.267 121.335H570.648ZM573.509 129L578.043 101.364H580.741L576.207 129H573.509ZM572.267 111.727L572.699 109.028H593.318L592.886 111.727H572.267ZM597.319 129V101.364H606.981C608.906 101.364 610.494 101.696 611.745 102.362C612.995 103.019 613.926 103.905 614.538 105.021C615.15 106.127 615.456 107.355 615.456 108.705C615.456 109.892 615.244 110.873 614.821 111.646C614.408 112.42 613.859 113.032 613.175 113.482C612.5 113.931 611.767 114.264 610.975 114.48V114.75C611.821 114.804 612.671 115.101 613.526 115.641C614.381 116.18 615.096 116.954 615.672 117.962C616.247 118.969 616.535 120.202 616.535 121.659C616.535 123.045 616.22 124.29 615.591 125.397C614.961 126.504 613.967 127.381 612.608 128.028C611.25 128.676 609.482 129 607.305 129H597.319ZM600.666 126.031H607.305C609.491 126.031 611.043 125.608 611.961 124.763C612.887 123.908 613.35 122.874 613.35 121.659C613.35 120.723 613.112 119.86 612.635 119.068C612.158 118.268 611.479 117.629 610.598 117.152C609.716 116.666 608.672 116.423 607.467 116.423H600.666V126.031ZM600.666 113.509H606.873C607.881 113.509 608.789 113.311 609.599 112.915C610.418 112.519 611.065 111.961 611.542 111.241C612.028 110.522 612.271 109.676 612.271 108.705C612.271 107.49 611.848 106.46 611.002 105.614C610.157 104.76 608.816 104.332 606.981 104.332H600.666V113.509ZM623.168 129H619.659L629.807 101.364H633.261L643.409 129H639.901L631.642 105.736H631.426L623.168 129ZM624.463 118.205H638.605V121.173H624.463V118.205ZM647.228 129V126.571L656.35 116.585C657.421 115.416 658.302 114.399 658.995 113.536C659.688 112.663 660.201 111.844 660.533 111.08C660.875 110.306 661.046 109.496 661.046 108.651C661.046 107.679 660.812 106.838 660.344 106.127C659.886 105.416 659.256 104.868 658.455 104.481C657.655 104.094 656.755 103.901 655.756 103.901C654.695 103.901 653.768 104.121 652.977 104.562C652.194 104.994 651.587 105.601 651.155 106.384C650.732 107.166 650.521 108.084 650.521 109.136H647.336C647.336 107.517 647.709 106.096 648.456 104.872C649.203 103.649 650.219 102.695 651.506 102.011C652.801 101.328 654.254 100.986 655.864 100.986C657.484 100.986 658.919 101.328 660.169 102.011C661.42 102.695 662.4 103.617 663.111 104.778C663.821 105.938 664.177 107.229 664.177 108.651C664.177 109.667 663.992 110.661 663.624 111.633C663.264 112.595 662.634 113.67 661.734 114.858C660.844 116.036 659.607 117.476 658.023 119.176L651.816 125.815V126.031H664.663V129H647.228ZM679.574 129.378C677.793 129.378 676.205 129.072 674.81 128.46C673.425 127.848 672.323 126.998 671.504 125.91C670.695 124.812 670.254 123.539 670.182 122.091H673.582C673.654 122.982 673.96 123.751 674.5 124.398C675.04 125.037 675.746 125.532 676.619 125.883C677.491 126.234 678.458 126.409 679.52 126.409C680.707 126.409 681.76 126.202 682.678 125.788C683.595 125.375 684.315 124.799 684.837 124.061C685.358 123.323 685.619 122.469 685.619 121.497C685.619 120.481 685.367 119.585 684.864 118.812C684.36 118.029 683.622 117.417 682.651 116.977C681.679 116.536 680.491 116.315 679.088 116.315H676.875V113.347H679.088C680.186 113.347 681.148 113.149 681.976 112.753C682.813 112.357 683.465 111.799 683.933 111.08C684.409 110.36 684.648 109.514 684.648 108.543C684.648 107.607 684.441 106.793 684.027 106.1C683.613 105.407 683.028 104.868 682.273 104.481C681.526 104.094 680.644 103.901 679.628 103.901C678.674 103.901 677.775 104.076 676.929 104.427C676.092 104.769 675.409 105.268 674.878 105.925C674.347 106.572 674.059 107.355 674.014 108.273H670.776C670.83 106.824 671.266 105.556 672.085 104.467C672.903 103.37 673.974 102.515 675.296 101.903C676.628 101.292 678.089 100.986 679.682 100.986C681.391 100.986 682.857 101.332 684.081 102.025C685.304 102.709 686.245 103.613 686.901 104.737C687.558 105.862 687.886 107.076 687.886 108.381C687.886 109.937 687.477 111.264 686.658 112.362C685.849 113.459 684.747 114.219 683.352 114.642V114.858C685.098 115.146 686.46 115.888 687.441 117.085C688.422 118.272 688.912 119.743 688.912 121.497C688.912 123 688.503 124.349 687.684 125.545C686.874 126.733 685.768 127.669 684.364 128.352C682.961 129.036 681.364 129.378 679.574 129.378ZM704.147 101.364V129H700.8V104.872H700.638L693.891 109.352V105.952L700.8 101.364H704.147ZM712.581 129V101.364H729.26V104.332H715.928V113.67H728.396V116.639H715.928V126.031H729.476V129H712.581Z" fill="white"/>
<path d="M848.224 129L852.759 101.364H855.457L850.923 129H848.224ZM835.648 121.335L836.08 118.636H856.699L856.267 121.335H835.648ZM838.509 129L843.043 101.364H845.741L841.207 129H838.509ZM837.267 111.727L837.699 109.028H858.318L857.886 111.727H837.267ZM871.01 129.378C869.876 129.36 868.743 129.144 867.609 128.73C866.475 128.316 865.441 127.619 864.505 126.638C863.57 125.649 862.819 124.313 862.252 122.631C861.685 120.939 861.402 118.816 861.402 116.261C861.402 113.814 861.631 111.646 862.09 109.757C862.549 107.859 863.214 106.262 864.087 104.967C864.96 103.662 866.012 102.673 867.245 101.998C868.486 101.323 869.885 100.986 871.441 100.986C872.989 100.986 874.365 101.296 875.571 101.917C876.785 102.529 877.775 103.383 878.539 104.481C879.304 105.578 879.799 106.842 880.024 108.273H876.731C876.425 107.031 875.832 106.001 874.95 105.183C874.068 104.364 872.899 103.955 871.441 103.955C869.3 103.955 867.614 104.886 866.381 106.748C865.158 108.61 864.541 111.223 864.532 114.588H864.748C865.252 113.823 865.85 113.171 866.543 112.631C867.245 112.083 868.018 111.66 868.864 111.363C869.71 111.066 870.605 110.918 871.549 110.918C873.133 110.918 874.581 111.313 875.895 112.105C877.208 112.888 878.261 113.972 879.052 115.357C879.844 116.734 880.24 118.312 880.24 120.094C880.24 121.803 879.857 123.368 879.093 124.79C878.328 126.202 877.253 127.327 875.868 128.163C874.491 128.991 872.872 129.396 871.01 129.378ZM871.01 126.409C872.143 126.409 873.16 126.126 874.059 125.559C874.968 124.992 875.683 124.232 876.205 123.278C876.736 122.325 877.001 121.263 877.001 120.094C877.001 118.951 876.745 117.912 876.232 116.977C875.728 116.032 875.031 115.281 874.14 114.723C873.259 114.165 872.251 113.886 871.118 113.886C870.263 113.886 869.467 114.057 868.729 114.399C867.991 114.732 867.344 115.191 866.786 115.776C866.237 116.36 865.805 117.031 865.49 117.786C865.176 118.533 865.018 119.32 865.018 120.148C865.018 121.245 865.275 122.271 865.787 123.224C866.309 124.178 867.02 124.947 867.919 125.532C868.828 126.117 869.858 126.409 871.01 126.409ZM894.884 129.378C893.103 129.378 891.515 129.072 890.121 128.46C888.735 127.848 887.633 126.998 886.815 125.91C886.005 124.812 885.564 123.539 885.492 122.091H888.893C888.965 122.982 889.271 123.751 889.811 124.398C890.35 125.037 891.057 125.532 891.929 125.883C892.802 126.234 893.769 126.409 894.83 126.409C896.018 126.409 897.07 126.202 897.988 125.788C898.906 125.375 899.625 124.799 900.147 124.061C900.669 123.323 900.93 122.469 900.93 121.497C900.93 120.481 900.678 119.585 900.174 118.812C899.67 118.029 898.933 117.417 897.961 116.977C896.99 116.536 895.802 116.315 894.399 116.315H892.186V113.347H894.399C895.496 113.347 896.459 113.149 897.286 112.753C898.123 112.357 898.775 111.799 899.243 111.08C899.72 110.36 899.958 109.514 899.958 108.543C899.958 107.607 899.751 106.793 899.338 106.1C898.924 105.407 898.339 104.868 897.583 104.481C896.837 104.094 895.955 103.901 894.938 103.901C893.985 103.901 893.085 104.076 892.24 104.427C891.403 104.769 890.719 105.268 890.188 105.925C889.658 106.572 889.37 107.355 889.325 108.273H886.086C886.14 106.824 886.576 105.556 887.395 104.467C888.214 103.37 889.284 102.515 890.607 101.903C891.938 101.292 893.4 100.986 894.992 100.986C896.702 100.986 898.168 101.332 899.392 102.025C900.615 102.709 901.555 103.613 902.212 104.737C902.869 105.862 903.197 107.076 903.197 108.381C903.197 109.937 902.788 111.264 901.969 112.362C901.159 113.459 900.057 114.219 898.663 114.642V114.858C900.408 115.146 901.771 115.888 902.752 117.085C903.732 118.272 904.222 119.743 904.222 121.497C904.222 123 903.813 124.349 902.994 125.545C902.185 126.733 901.078 127.669 899.675 128.352C898.271 129.036 896.675 129.378 894.884 129.378ZM919.458 101.364V129H916.111V104.872H915.949L909.202 109.352V105.952L916.111 101.364H919.458ZM936.744 129.378C934.963 129.378 933.375 129.072 931.98 128.46C930.595 127.848 929.493 126.998 928.674 125.91C927.865 124.812 927.424 123.539 927.352 122.091H930.752C930.824 122.982 931.13 123.751 931.67 124.398C932.21 125.037 932.916 125.532 933.789 125.883C934.661 126.234 935.628 126.409 936.69 126.409C937.877 126.409 938.93 126.202 939.847 125.788C940.765 125.375 941.485 124.799 942.007 124.061C942.528 123.323 942.789 122.469 942.789 121.497C942.789 120.481 942.537 119.585 942.034 118.812C941.53 118.029 940.792 117.417 939.82 116.977C938.849 116.536 937.661 116.315 936.258 116.315H934.045V113.347H936.258C937.356 113.347 938.318 113.149 939.146 112.753C939.982 112.357 940.635 111.799 941.102 111.08C941.579 110.36 941.818 109.514 941.818 108.543C941.818 107.607 941.611 106.793 941.197 106.1C940.783 105.407 940.198 104.868 939.443 104.481C938.696 104.094 937.814 103.901 936.798 103.901C935.844 103.901 934.945 104.076 934.099 104.427C933.262 104.769 932.579 105.268 932.048 105.925C931.517 106.572 931.229 107.355 931.184 108.273H927.945C927.999 106.824 928.436 105.556 929.254 104.467C930.073 103.37 931.144 102.515 932.466 101.903C933.798 101.292 935.259 100.986 936.852 100.986C938.561 100.986 940.027 101.332 941.251 102.025C942.474 102.709 943.414 103.613 944.071 104.737C944.728 105.862 945.056 107.076 945.056 108.381C945.056 109.937 944.647 111.264 943.828 112.362C943.019 113.459 941.917 114.219 940.522 114.642V114.858C942.267 115.146 943.63 115.888 944.611 117.085C945.592 118.272 946.082 119.743 946.082 121.497C946.082 123 945.673 124.349 944.854 125.545C944.044 126.733 942.938 127.669 941.534 128.352C940.131 129.036 938.534 129.378 936.744 129.378ZM961.317 101.364V129H957.97V104.872H957.808L951.061 109.352V105.952L957.97 101.364H961.317ZM978.279 129.378C976.246 129.378 974.514 128.825 973.084 127.718C971.654 126.603 970.561 124.988 969.805 122.874C969.049 120.75 968.671 118.187 968.671 115.182C968.671 112.195 969.049 109.645 969.805 107.531C970.57 105.407 971.667 103.788 973.097 102.673C974.537 101.548 976.264 100.986 978.279 100.986C980.294 100.986 982.017 101.548 983.448 102.673C984.887 103.788 985.985 105.407 986.74 107.531C987.505 109.645 987.887 112.195 987.887 115.182C987.887 118.187 987.509 120.75 986.754 122.874C985.998 124.988 984.905 126.603 983.475 127.718C982.044 128.825 980.312 129.378 978.279 129.378ZM978.279 126.409C980.294 126.409 981.86 125.437 982.975 123.494C984.091 121.551 984.649 118.78 984.649 115.182C984.649 112.789 984.392 110.751 983.879 109.069C983.376 107.387 982.647 106.105 981.693 105.223C980.749 104.341 979.611 103.901 978.279 103.901C976.282 103.901 974.721 104.886 973.597 106.856C972.472 108.817 971.91 111.592 971.91 115.182C971.91 117.575 972.162 119.608 972.666 121.281C973.169 122.955 973.894 124.228 974.838 125.1C975.792 125.973 976.939 126.409 978.279 126.409Z" fill="white"/>
<path d="M1103.22 129L1107.76 101.364H1110.46L1105.92 129H1103.22ZM1090.65 121.335L1091.08 118.636H1111.7L1111.27 121.335H1090.65ZM1093.51 129L1098.04 101.364H1100.74L1096.21 129H1093.51ZM1092.27 111.727L1092.7 109.028H1113.32L1112.89 111.727H1092.27ZM1125.85 129.378C1123.81 129.378 1122.08 128.825 1120.65 127.718C1119.22 126.603 1118.13 124.988 1117.37 122.874C1116.62 120.75 1116.24 118.187 1116.24 115.182C1116.24 112.195 1116.62 109.645 1117.37 107.531C1118.14 105.407 1119.24 103.788 1120.67 102.673C1122.11 101.548 1123.83 100.986 1125.85 100.986C1127.86 100.986 1129.59 101.548 1131.02 102.673C1132.46 103.788 1133.55 105.407 1134.31 107.531C1135.07 109.645 1135.46 112.195 1135.46 115.182C1135.46 118.187 1135.08 120.75 1134.32 122.874C1133.57 124.988 1132.47 126.603 1131.04 127.718C1129.61 128.825 1127.88 129.378 1125.85 129.378ZM1125.85 126.409C1127.86 126.409 1129.43 125.437 1130.54 123.494C1131.66 121.551 1132.22 118.78 1132.22 115.182C1132.22 112.789 1131.96 110.751 1131.45 109.069C1130.94 107.387 1130.22 106.105 1129.26 105.223C1128.32 104.341 1127.18 103.901 1125.85 103.901C1123.85 103.901 1122.29 104.886 1121.17 106.856C1120.04 108.817 1119.48 111.592 1119.48 115.182C1119.48 117.575 1119.73 119.608 1120.23 121.281C1120.74 122.955 1121.46 124.228 1122.41 125.1C1123.36 125.973 1124.51 126.409 1125.85 126.409ZM1141.07 129V101.364H1157.64V104.332H1144.42V113.67H1156.4V116.639H1144.42V129H1141.07ZM1171.9 129.378C1169.87 129.378 1168.14 128.825 1166.71 127.718C1165.27 126.603 1164.18 124.988 1163.43 122.874C1162.67 120.75 1162.29 118.187 1162.29 115.182C1162.29 112.195 1162.67 109.645 1163.43 107.531C1164.19 105.407 1165.29 103.788 1166.72 102.673C1168.16 101.548 1169.89 100.986 1171.9 100.986C1173.92 100.986 1175.64 101.548 1177.07 102.673C1178.51 103.788 1179.61 105.407 1180.36 107.531C1181.13 109.645 1181.51 112.195 1181.51 115.182C1181.51 118.187 1181.13 120.75 1180.37 122.874C1179.62 124.988 1178.53 126.603 1177.1 127.718C1175.67 128.825 1173.93 129.378 1171.9 129.378ZM1171.9 126.409C1173.92 126.409 1175.48 125.437 1176.6 123.494C1177.71 121.551 1178.27 118.78 1178.27 115.182C1178.27 112.789 1178.01 110.751 1177.5 109.069C1177 107.387 1176.27 106.105 1175.31 105.223C1174.37 104.341 1173.23 103.901 1171.9 103.901C1169.9 103.901 1168.34 104.886 1167.22 106.856C1166.09 108.817 1165.53 111.592 1165.53 115.182C1165.53 117.575 1165.78 119.608 1166.29 121.281C1166.79 122.955 1167.51 124.228 1168.46 125.1C1169.41 125.973 1170.56 126.409 1171.9 126.409ZM1187.12 129V101.364H1203.8V104.332H1190.47V113.67H1202.94V116.639H1190.47V126.031H1204.02V129H1187.12ZM1218.36 129.378C1216.33 129.378 1214.6 128.825 1213.17 127.718C1211.74 126.603 1210.64 124.988 1209.89 122.874C1209.13 120.75 1208.75 118.187 1208.75 115.182C1208.75 112.195 1209.13 109.645 1209.89 107.531C1210.65 105.407 1211.75 103.788 1213.18 102.673C1214.62 101.548 1216.35 100.986 1218.36 100.986C1220.38 100.986 1222.1 101.548 1223.53 102.673C1224.97 103.788 1226.07 105.407 1226.82 107.531C1227.59 109.645 1227.97 112.195 1227.97 115.182C1227.97 118.187 1227.59 120.75 1226.84 122.874C1226.08 124.988 1224.99 126.603 1223.56 127.718C1222.13 128.825 1220.39 129.378 1218.36 129.378ZM1218.36 126.409C1220.38 126.409 1221.94 125.437 1223.06 123.494C1224.17 121.551 1224.73 118.78 1224.73 115.182C1224.73 112.789 1224.47 110.751 1223.96 109.069C1223.46 107.387 1222.73 106.105 1221.78 105.223C1220.83 104.341 1219.69 103.901 1218.36 103.901C1216.36 103.901 1214.8 104.886 1213.68 106.856C1212.55 108.817 1211.99 111.592 1211.99 115.182C1211.99 117.575 1212.24 119.608 1212.75 121.281C1213.25 122.955 1213.98 124.228 1214.92 125.1C1215.87 125.973 1217.02 126.409 1218.36 126.409ZM1233.58 129V101.364H1250.26V104.332H1236.93V113.67H1249.4V116.639H1236.93V126.031H1250.48V129H1233.58Z" fill="white"/>
</svg>
