<svg width="1400" height="248" viewBox="0 0 1400 248" fill="none" xmlns="http://www.w3.org/2000/svg">
<rect y="0.7229" width="1400" height="246.554" rx="20" fill="#D9D9D9"/>
<rect x="35.375" y="16.8025" width="214.395" height="214.395" fill="#1DB954"/>
<rect x="314.089" y="16.8025" width="214.395" height="214.395" fill="#1E1E1E"/>
<rect x="592.802" y="16.8025" width="214.395" height="214.395" fill="#BA231E"/>
<rect x="871.516" y="16.8025" width="214.395" height="214.395" fill="#631310"/>
<rect x="1150.23" y="16.8025" width="214.395" height="214.395" fill="#0F0E0E"/>
<path d="M66.8231 136.345L71.3572 108.708H74.056L69.5219 136.345H66.8231ZM54.2464 128.68L54.6782 125.981H75.2975L74.8657 128.68H54.2464ZM57.1072 136.345L61.6412 108.708H64.3401L59.806 136.345H57.1072ZM55.8657 119.072L56.2975 116.373H76.9168L76.485 119.072H55.8657ZM90.148 108.708V136.345H86.8014V112.217H86.6395L79.8923 116.697V113.296L86.8014 108.708H90.148ZM107.11 136.345H98.5819V108.708H107.488C110.169 108.708 112.463 109.262 114.37 110.368C116.277 111.466 117.739 113.045 118.756 115.105C119.773 117.156 120.281 119.612 120.281 122.473C120.281 125.351 119.768 127.83 118.742 129.908C117.717 131.977 116.224 133.569 114.262 134.685C112.301 135.791 109.917 136.345 107.11 136.345ZM101.929 133.376H106.894C109.179 133.376 111.073 132.935 112.576 132.054C114.078 131.172 115.198 129.917 115.936 128.289C116.673 126.66 117.042 124.722 117.042 122.473C117.042 120.242 116.678 118.321 115.949 116.71C115.22 115.091 114.132 113.85 112.684 112.986C111.235 112.113 109.431 111.677 107.272 111.677H101.929V133.376ZM125.894 136.345V108.708H135.556C137.482 108.708 139.069 109.041 140.32 109.707C141.57 110.364 142.501 111.25 143.113 112.365C143.725 113.472 144.031 114.7 144.031 116.049C144.031 117.237 143.819 118.217 143.397 118.991C142.983 119.765 142.434 120.376 141.75 120.826C141.076 121.276 140.342 121.609 139.551 121.825V122.095C140.396 122.149 141.246 122.446 142.101 122.985C142.956 123.525 143.671 124.299 144.247 125.306C144.822 126.314 145.11 127.546 145.11 129.004C145.11 130.389 144.795 131.635 144.166 132.742C143.536 133.848 142.542 134.725 141.184 135.373C139.825 136.021 138.057 136.345 135.88 136.345H125.894ZM129.241 133.376H135.88C138.066 133.376 139.618 132.953 140.536 132.108C141.462 131.253 141.926 130.218 141.926 129.004C141.926 128.068 141.687 127.205 141.21 126.413C140.734 125.612 140.054 124.974 139.173 124.497C138.291 124.011 137.248 123.768 136.042 123.768H129.241V133.376ZM129.241 120.853H135.448C136.456 120.853 137.365 120.655 138.174 120.259C138.993 119.864 139.641 119.306 140.117 118.586C140.603 117.867 140.846 117.021 140.846 116.049C140.846 114.835 140.423 113.805 139.578 112.959C138.732 112.104 137.392 111.677 135.556 111.677H129.241V120.853ZM158.922 108.331C160.055 108.34 161.189 108.555 162.322 108.978C163.456 109.401 164.49 110.103 165.426 111.083C166.362 112.055 167.113 113.382 167.68 115.064C168.246 116.746 168.53 118.856 168.53 121.393C168.53 123.849 168.296 126.031 167.828 127.938C167.369 129.836 166.704 131.437 165.831 132.742C164.967 134.046 163.915 135.036 162.673 135.71C161.441 136.385 160.046 136.723 158.49 136.723C156.943 136.723 155.562 136.417 154.347 135.805C153.142 135.184 152.152 134.325 151.378 133.228C150.614 132.121 150.123 130.839 149.908 129.382H153.2C153.497 130.65 154.086 131.698 154.968 132.526C155.859 133.344 157.033 133.754 158.49 133.754C160.622 133.754 162.304 132.823 163.537 130.96C164.778 129.098 165.399 126.467 165.399 123.066H165.183C164.679 123.822 164.081 124.474 163.388 125.023C162.696 125.572 161.927 125.995 161.081 126.291C160.235 126.588 159.336 126.737 158.382 126.737C156.799 126.737 155.346 126.345 154.023 125.563C152.71 124.771 151.657 123.687 150.866 122.311C150.083 120.925 149.692 119.342 149.692 117.561C149.692 115.869 150.07 114.322 150.825 112.919C151.59 111.506 152.66 110.382 154.037 109.545C155.422 108.708 157.051 108.304 158.922 108.331ZM158.922 111.299C157.788 111.299 156.767 111.583 155.859 112.149C154.959 112.707 154.244 113.463 153.713 114.416C153.191 115.361 152.93 116.409 152.93 117.561C152.93 118.712 153.182 119.76 153.686 120.705C154.199 121.64 154.896 122.387 155.778 122.945C156.668 123.494 157.68 123.768 158.814 123.768C159.668 123.768 160.465 123.602 161.202 123.269C161.94 122.927 162.583 122.464 163.132 121.879C163.69 121.285 164.126 120.615 164.441 119.868C164.756 119.112 164.913 118.325 164.913 117.507C164.913 116.427 164.652 115.415 164.131 114.47C163.618 113.526 162.907 112.761 161.998 112.176C161.099 111.592 160.073 111.299 158.922 111.299ZM182.473 136.723C180.889 136.723 179.464 136.408 178.195 135.778C176.927 135.148 175.91 134.285 175.145 133.187C174.381 132.09 173.962 130.839 173.89 129.436H177.129C177.255 130.686 177.822 131.721 178.829 132.539C179.846 133.349 181.06 133.754 182.473 133.754C183.606 133.754 184.614 133.488 185.495 132.958C186.386 132.427 187.083 131.698 187.587 130.772C188.1 129.836 188.356 128.779 188.356 127.6C188.356 126.395 188.091 125.32 187.56 124.375C187.038 123.422 186.319 122.67 185.401 122.122C184.483 121.573 183.435 121.294 182.257 121.285C181.411 121.276 180.543 121.407 179.652 121.676C178.762 121.937 178.029 122.275 177.453 122.688L174.322 122.311L175.995 108.708H190.353V111.677H178.802L177.831 119.828H177.993C178.559 119.378 179.27 119.005 180.125 118.708C180.979 118.411 181.87 118.262 182.797 118.262C184.488 118.262 185.995 118.667 187.317 119.477C188.649 120.277 189.692 121.375 190.448 122.769C191.213 124.164 191.595 125.756 191.595 127.546C191.595 129.31 191.199 130.884 190.407 132.269C189.625 133.646 188.545 134.734 187.169 135.535C185.792 136.327 184.227 136.723 182.473 136.723ZM196.308 130.677V127.924L208.453 108.708H210.45V112.973H209.1L199.924 127.492V127.708H216.279V130.677H196.308ZM209.316 136.345V129.84V128.559V108.708H212.501V136.345H209.316Z" fill="white"/>
<path d="M356.257 136.345L360.791 108.708H363.49L358.956 136.345H356.257ZM343.68 128.68L344.112 125.981H364.731L364.299 128.68H343.68ZM346.541 136.345L351.075 108.708H353.774L349.24 136.345H346.541ZM345.299 119.072L345.731 116.373H366.35L365.919 119.072H345.299ZM379.582 108.708V136.345H376.235V112.217H376.073L369.326 116.697V113.296L376.235 108.708H379.582ZM388.016 136.345V108.708H404.695V111.677H391.362V121.015H403.831V123.984H391.362V133.376H404.91V136.345H388.016ZM419.957 108.708V136.345H416.61V112.217H416.448L409.701 116.697V113.296L416.61 108.708H419.957ZM428.391 136.345V108.708H445.07V111.677H431.737V121.015H444.206V123.984H431.737V133.376H445.285V136.345H428.391ZM460.332 108.708V136.345H456.985V112.217H456.823L450.076 116.697V113.296L456.985 108.708H460.332ZM468.766 136.345V108.708H485.445V111.677H472.112V121.015H484.581V123.984H472.112V133.376H485.66V136.345H468.766Z" fill="white"/>
<path d="M624.25 136.345L628.784 108.708H631.483L626.949 136.345H624.25ZM611.674 128.68L612.105 125.981H632.725L632.293 128.68H611.674ZM614.534 136.345L619.068 108.708H621.767L617.233 136.345H614.534ZM613.293 119.072L613.725 116.373H634.344L633.912 119.072H613.293ZM638.345 136.345V108.708H648.007C649.932 108.708 651.52 109.041 652.771 109.707C654.021 110.364 654.952 111.25 655.564 112.365C656.176 113.472 656.481 114.7 656.481 116.049C656.481 117.237 656.27 118.217 655.847 118.991C655.433 119.765 654.885 120.376 654.201 120.826C653.526 121.276 652.793 121.609 652.001 121.825V122.095C652.847 122.149 653.697 122.446 654.552 122.985C655.406 123.525 656.122 124.299 656.697 125.306C657.273 126.314 657.561 127.546 657.561 129.004C657.561 130.389 657.246 131.635 656.616 132.742C655.987 133.848 654.993 134.725 653.634 135.373C652.276 136.021 650.508 136.345 648.331 136.345H638.345ZM641.692 133.376H648.331C650.517 133.376 652.069 132.953 652.986 132.108C653.913 131.253 654.376 130.218 654.376 129.004C654.376 128.068 654.138 127.205 653.661 126.413C653.184 125.612 652.505 124.974 651.624 124.497C650.742 124.011 649.698 123.768 648.493 123.768H641.692V133.376ZM641.692 120.853H647.899C648.907 120.853 649.815 120.655 650.625 120.259C651.444 119.864 652.091 119.306 652.568 118.586C653.054 117.867 653.297 117.021 653.297 116.049C653.297 114.835 652.874 113.805 652.028 112.959C651.183 112.104 649.842 111.677 648.007 111.677H641.692V120.853ZM664.193 136.345H660.685L670.833 108.708H674.287L684.435 136.345H680.926L672.668 113.081H672.452L664.193 136.345ZM665.489 125.549H679.631V128.518H665.489V125.549ZM688.254 136.345V133.916L697.376 123.93C698.447 122.76 699.328 121.744 700.021 120.88C700.714 120.008 701.226 119.189 701.559 118.424C701.901 117.651 702.072 116.841 702.072 115.995C702.072 115.024 701.838 114.183 701.37 113.472C700.912 112.761 700.282 112.212 699.481 111.826C698.68 111.439 697.781 111.245 696.782 111.245C695.721 111.245 694.794 111.466 694.002 111.907C693.22 112.338 692.613 112.946 692.181 113.728C691.758 114.511 691.546 115.429 691.546 116.481H688.362C688.362 114.862 688.735 113.44 689.482 112.217C690.229 110.993 691.245 110.04 692.532 109.356C693.827 108.672 695.28 108.331 696.89 108.331C698.51 108.331 699.944 108.672 701.195 109.356C702.445 110.04 703.426 110.962 704.137 112.122C704.847 113.283 705.203 114.574 705.203 115.995C705.203 117.012 705.018 118.006 704.649 118.978C704.29 119.94 703.66 121.015 702.76 122.203C701.87 123.381 700.633 124.821 699.049 126.521L692.842 133.16V133.376H705.689V136.345H688.254ZM720.6 136.723C718.818 136.723 717.231 136.417 715.836 135.805C714.451 135.193 713.349 134.343 712.53 133.255C711.72 132.157 711.28 130.884 711.208 129.436H714.608C714.68 130.326 714.986 131.095 715.526 131.743C716.066 132.382 716.772 132.877 717.644 133.228C718.517 133.578 719.484 133.754 720.546 133.754C721.733 133.754 722.786 133.547 723.703 133.133C724.621 132.719 725.341 132.143 725.863 131.406C726.384 130.668 726.645 129.813 726.645 128.842C726.645 127.825 726.393 126.93 725.89 126.157C725.386 125.374 724.648 124.762 723.676 124.321C722.705 123.88 721.517 123.66 720.114 123.66H717.901V120.691H720.114C721.211 120.691 722.174 120.493 723.002 120.098C723.838 119.702 724.491 119.144 724.958 118.424C725.435 117.705 725.674 116.859 725.674 115.887C725.674 114.952 725.467 114.138 725.053 113.445C724.639 112.752 724.054 112.212 723.299 111.826C722.552 111.439 721.67 111.245 720.654 111.245C719.7 111.245 718.801 111.421 717.955 111.772C717.118 112.113 716.434 112.613 715.904 113.269C715.373 113.917 715.085 114.7 715.04 115.617H711.801C711.855 114.169 712.292 112.901 713.11 111.812C713.929 110.715 715 109.86 716.322 109.248C717.653 108.636 719.115 108.331 720.708 108.331C722.417 108.331 723.883 108.677 725.107 109.37C726.33 110.053 727.27 110.957 727.927 112.082C728.584 113.206 728.912 114.421 728.912 115.725C728.912 117.282 728.503 118.609 727.684 119.706C726.875 120.804 725.773 121.564 724.378 121.987V122.203C726.123 122.491 727.486 123.233 728.467 124.429C729.448 125.617 729.938 127.088 729.938 128.842C729.938 130.344 729.528 131.694 728.71 132.89C727.9 134.078 726.794 135.013 725.39 135.697C723.987 136.381 722.39 136.723 720.6 136.723ZM745.173 108.708V136.345H741.826V112.217H741.664L734.917 116.697V113.296L741.826 108.708H745.173ZM753.607 136.345V108.708H770.286V111.677H756.953V121.015H769.422V123.984H756.953V133.376H770.502V136.345H753.607Z" fill="white"/>
<path d="M908.324 136.345L912.858 108.708H915.557L911.023 136.345H908.324ZM895.747 128.68L896.179 125.981H916.798L916.367 128.68H895.747ZM898.608 136.345L903.142 108.708H905.841L901.307 136.345H898.608ZM897.367 119.072L897.798 116.373H918.418L917.986 119.072H897.367ZM931.109 136.723C929.976 136.705 928.842 136.489 927.709 136.075C926.575 135.661 925.541 134.964 924.605 133.983C923.669 132.994 922.918 131.658 922.351 129.975C921.785 128.284 921.501 126.161 921.501 123.606C921.501 121.159 921.731 118.991 922.189 117.102C922.648 115.204 923.314 113.607 924.187 112.311C925.059 111.007 926.112 110.017 927.344 109.343C928.586 108.668 929.985 108.331 931.541 108.331C933.088 108.331 934.465 108.641 935.67 109.262C936.885 109.873 937.874 110.728 938.639 111.826C939.404 112.923 939.898 114.187 940.123 115.617H936.831C936.525 114.376 935.931 113.346 935.05 112.527C934.168 111.709 932.998 111.299 931.541 111.299C929.4 111.299 927.713 112.23 926.481 114.093C925.257 115.955 924.641 118.568 924.632 121.933H924.848C925.352 121.168 925.95 120.516 926.643 119.976C927.344 119.427 928.118 119.005 928.964 118.708C929.809 118.411 930.704 118.262 931.649 118.262C933.232 118.262 934.681 118.658 935.994 119.45C937.308 120.233 938.36 121.317 939.152 122.702C939.943 124.078 940.339 125.657 940.339 127.438C940.339 129.148 939.957 130.713 939.192 132.134C938.428 133.547 937.353 134.671 935.967 135.508C934.591 136.336 932.971 136.741 931.109 136.723ZM931.109 133.754C932.243 133.754 933.259 133.47 934.159 132.904C935.068 132.337 935.783 131.577 936.305 130.623C936.835 129.67 937.101 128.608 937.101 127.438C937.101 126.296 936.844 125.257 936.331 124.321C935.828 123.377 935.131 122.626 934.24 122.068C933.358 121.51 932.351 121.231 931.217 121.231C930.363 121.231 929.566 121.402 928.829 121.744C928.091 122.077 927.443 122.536 926.885 123.12C926.337 123.705 925.905 124.375 925.59 125.131C925.275 125.878 925.118 126.665 925.118 127.492C925.118 128.59 925.374 129.616 925.887 130.569C926.409 131.523 927.119 132.292 928.019 132.877C928.928 133.461 929.958 133.754 931.109 133.754ZM954.984 136.723C953.203 136.723 951.615 136.417 950.221 135.805C948.835 135.193 947.733 134.343 946.914 133.255C946.105 132.157 945.664 130.884 945.592 129.436H948.993C949.065 130.326 949.37 131.095 949.91 131.743C950.45 132.382 951.156 132.877 952.029 133.228C952.901 133.578 953.868 133.754 954.93 133.754C956.118 133.754 957.17 133.547 958.088 133.133C959.005 132.719 959.725 132.143 960.247 131.406C960.769 130.668 961.029 129.813 961.029 128.842C961.029 127.825 960.778 126.93 960.274 126.157C959.77 125.374 959.032 124.762 958.061 124.321C957.089 123.88 955.902 123.66 954.498 123.66H952.285V120.691H954.498C955.596 120.691 956.558 120.493 957.386 120.098C958.223 119.702 958.875 119.144 959.343 118.424C959.819 117.705 960.058 116.859 960.058 115.887C960.058 114.952 959.851 114.138 959.437 113.445C959.023 112.752 958.439 112.212 957.683 111.826C956.936 111.439 956.055 111.245 955.038 111.245C954.084 111.245 953.185 111.421 952.339 111.772C951.502 112.113 950.819 112.613 950.288 113.269C949.757 113.917 949.469 114.7 949.424 115.617H946.186C946.24 114.169 946.676 112.901 947.495 111.812C948.313 110.715 949.384 109.86 950.706 109.248C952.038 108.636 953.5 108.331 955.092 108.331C956.801 108.331 958.268 108.677 959.491 109.37C960.715 110.053 961.655 110.957 962.311 112.082C962.968 113.206 963.297 114.421 963.297 115.725C963.297 117.282 962.887 118.609 962.069 119.706C961.259 120.804 960.157 121.564 958.762 121.987V122.203C960.508 122.491 961.871 123.233 962.851 124.429C963.832 125.617 964.322 127.088 964.322 128.842C964.322 130.344 963.913 131.694 963.094 132.89C962.284 134.078 961.178 135.013 959.775 135.697C958.371 136.381 956.774 136.723 954.984 136.723ZM979.557 108.708V136.345H976.211V112.217H976.049L969.301 116.697V113.296L976.211 108.708H979.557ZM996.843 136.723C995.062 136.723 993.474 136.417 992.08 135.805C990.694 135.193 989.592 134.343 988.774 133.255C987.964 132.157 987.523 130.884 987.451 129.436H990.852C990.924 130.326 991.23 131.095 991.77 131.743C992.309 132.382 993.016 132.877 993.888 133.228C994.761 133.578 995.728 133.754 996.789 133.754C997.977 133.754 999.029 133.547 999.947 133.133C1000.86 132.719 1001.58 132.143 1002.11 131.406C1002.63 130.668 1002.89 129.813 1002.89 128.842C1002.89 127.825 1002.64 126.93 1002.13 126.157C1001.63 125.374 1000.89 124.762 999.92 124.321C998.949 123.88 997.761 123.66 996.358 123.66H994.145V120.691H996.358C997.455 120.691 998.418 120.493 999.245 120.098C1000.08 119.702 1000.73 119.144 1001.2 118.424C1001.68 117.705 1001.92 116.859 1001.92 115.887C1001.92 114.952 1001.71 114.138 1001.3 113.445C1000.88 112.752 1000.3 112.212 999.542 111.826C998.796 111.439 997.914 111.245 996.897 111.245C995.944 111.245 995.044 111.421 994.199 111.772C993.362 112.113 992.678 112.613 992.147 113.269C991.617 113.917 991.329 114.7 991.284 115.617H988.045C988.099 114.169 988.535 112.901 989.354 111.812C990.173 110.715 991.243 109.86 992.566 109.248C993.897 108.636 995.359 108.331 996.951 108.331C998.661 108.331 1000.13 108.677 1001.35 109.37C1002.57 110.053 1003.51 110.957 1004.17 112.082C1004.83 113.206 1005.16 114.421 1005.16 115.725C1005.16 117.282 1004.75 118.609 1003.93 119.706C1003.12 120.804 1002.02 121.564 1000.62 121.987V122.203C1002.37 122.491 1003.73 123.233 1004.71 124.429C1005.69 125.617 1006.18 127.088 1006.18 128.842C1006.18 130.344 1005.77 131.694 1004.95 132.89C1004.14 134.078 1003.04 135.013 1001.63 135.697C1000.23 136.381 998.634 136.723 996.843 136.723ZM1021.42 108.708V136.345H1018.07V112.217H1017.91L1011.16 116.697V113.296L1018.07 108.708H1021.42ZM1038.38 136.723C1036.35 136.723 1034.61 136.169 1033.18 135.063C1031.75 133.947 1030.66 132.332 1029.9 130.218C1029.15 128.095 1028.77 125.531 1028.77 122.527C1028.77 119.54 1029.15 116.989 1029.9 114.875C1030.67 112.752 1031.77 111.133 1033.2 110.017C1034.64 108.893 1036.36 108.331 1038.38 108.331C1040.39 108.331 1042.12 108.893 1043.55 110.017C1044.99 111.133 1046.08 112.752 1046.84 114.875C1047.6 116.989 1047.99 119.54 1047.99 122.527C1047.99 125.531 1047.61 128.095 1046.85 130.218C1046.1 132.332 1045 133.947 1043.57 135.063C1042.14 136.169 1040.41 136.723 1038.38 136.723ZM1038.38 133.754C1040.39 133.754 1041.96 132.782 1043.07 130.839C1044.19 128.896 1044.75 126.125 1044.75 122.527C1044.75 120.134 1044.49 118.096 1043.98 116.414C1043.48 114.731 1042.75 113.449 1041.79 112.568C1040.85 111.686 1039.71 111.245 1038.38 111.245C1036.38 111.245 1034.82 112.23 1033.7 114.201C1032.57 116.162 1032.01 118.937 1032.01 122.527C1032.01 124.92 1032.26 126.953 1032.77 128.626C1033.27 130.299 1033.99 131.572 1034.94 132.445C1035.89 133.318 1037.04 133.754 1038.38 133.754Z" fill="white"/>
<path d="M1181.68 136.345L1186.21 108.708H1188.91L1184.38 136.345H1181.68ZM1169.1 128.68L1169.53 125.981H1190.15L1189.72 128.68H1169.1ZM1171.96 136.345L1176.5 108.708H1179.19L1174.66 136.345H1171.96ZM1170.72 119.072L1171.15 116.373H1191.77L1191.34 119.072H1170.72ZM1204.3 136.723C1202.27 136.723 1200.54 136.169 1199.11 135.063C1197.68 133.947 1196.58 132.332 1195.83 130.218C1195.07 128.095 1194.69 125.531 1194.69 122.527C1194.69 119.54 1195.07 116.989 1195.83 114.875C1196.59 112.752 1197.69 111.133 1199.12 110.017C1200.56 108.893 1202.29 108.331 1204.3 108.331C1206.32 108.331 1208.04 108.893 1209.47 110.017C1210.91 111.133 1212.01 112.752 1212.76 114.875C1213.53 116.989 1213.91 119.54 1213.91 122.527C1213.91 125.531 1213.53 128.095 1212.78 130.218C1212.02 132.332 1210.93 133.947 1209.5 135.063C1208.07 136.169 1206.33 136.723 1204.3 136.723ZM1204.3 133.754C1206.32 133.754 1207.88 132.782 1209 130.839C1210.11 128.896 1210.67 126.125 1210.67 122.527C1210.67 120.134 1210.41 118.096 1209.9 116.414C1209.4 114.731 1208.67 113.449 1207.71 112.568C1206.77 111.686 1205.63 111.245 1204.3 111.245C1202.3 111.245 1200.74 112.23 1199.62 114.201C1198.49 116.162 1197.93 118.937 1197.93 122.527C1197.93 124.92 1198.18 126.953 1198.69 128.626C1199.19 130.299 1199.92 131.572 1200.86 132.445C1201.81 133.318 1202.96 133.754 1204.3 133.754ZM1219.52 136.345V108.708H1236.09V111.677H1222.87V121.015H1234.85V123.984H1222.87V136.345H1219.52ZM1250.35 136.723C1248.32 136.723 1246.59 136.169 1245.16 135.063C1243.73 133.947 1242.63 132.332 1241.88 130.218C1241.12 128.095 1240.75 125.531 1240.75 122.527C1240.75 119.54 1241.12 116.989 1241.88 114.875C1242.64 112.752 1243.74 111.133 1245.17 110.017C1246.61 108.893 1248.34 108.331 1250.35 108.331C1252.37 108.331 1254.09 108.893 1255.52 110.017C1256.96 111.133 1258.06 112.752 1258.81 114.875C1259.58 116.989 1259.96 119.54 1259.96 122.527C1259.96 125.531 1259.58 128.095 1258.83 130.218C1258.07 132.332 1256.98 133.947 1255.55 135.063C1254.12 136.169 1252.39 136.723 1250.35 136.723ZM1250.35 133.754C1252.37 133.754 1253.93 132.782 1255.05 130.839C1256.17 128.896 1256.72 126.125 1256.72 122.527C1256.72 120.134 1256.47 118.096 1255.95 116.414C1255.45 114.731 1254.72 113.449 1253.77 112.568C1252.82 111.686 1251.68 111.245 1250.35 111.245C1248.36 111.245 1246.8 112.23 1245.67 114.201C1244.55 116.162 1243.98 118.937 1243.98 122.527C1243.98 124.92 1244.24 126.953 1244.74 128.626C1245.24 130.299 1245.97 131.572 1246.91 132.445C1247.87 133.318 1249.01 133.754 1250.35 133.754ZM1265.58 136.345V108.708H1282.25V111.677H1268.92V121.015H1281.39V123.984H1268.92V133.376H1282.47V136.345H1265.58ZM1296.81 136.723C1294.78 136.723 1293.05 136.169 1291.62 135.063C1290.19 133.947 1289.1 132.332 1288.34 130.218C1287.58 128.095 1287.21 125.531 1287.21 122.527C1287.21 119.54 1287.58 116.989 1288.34 114.875C1289.1 112.752 1290.2 111.133 1291.63 110.017C1293.07 108.893 1294.8 108.331 1296.81 108.331C1298.83 108.331 1300.55 108.893 1301.98 110.017C1303.42 111.133 1304.52 112.752 1305.28 114.875C1306.04 116.989 1306.42 119.54 1306.42 122.527C1306.42 125.531 1306.04 128.095 1305.29 130.218C1304.53 132.332 1303.44 133.947 1302.01 135.063C1300.58 136.169 1298.85 136.723 1296.81 136.723ZM1296.81 133.754C1298.83 133.754 1300.39 132.782 1301.51 130.839C1302.63 128.896 1303.18 126.125 1303.18 122.527C1303.18 120.134 1302.93 118.096 1302.41 116.414C1301.91 114.731 1301.18 113.449 1300.23 112.568C1299.28 111.686 1298.15 111.245 1296.81 111.245C1294.82 111.245 1293.26 112.23 1292.13 114.201C1291.01 116.162 1290.45 118.937 1290.45 122.527C1290.45 124.92 1290.7 126.953 1291.2 128.626C1291.7 130.299 1292.43 131.572 1293.37 132.445C1294.33 133.318 1295.47 133.754 1296.81 133.754ZM1312.04 136.345V108.708H1328.72V111.677H1315.38V121.015H1327.85V123.984H1315.38V133.376H1328.93V136.345H1312.04Z" fill="white"/>
</svg>
