<svg xmlns="http://www.w3.org/2000/svg"  viewBox="0 0 50 50" width="100px" height="100px"><path d="M 11 12 C 10 12 9.265625 12.5 8.34375 13.09375 C 7.421875 13.6875 6.40625 14.4375 5.40625 15.1875 C 4.40625 15.9375 3.421875 16.6875 2.59375 17.21875 C 1.765625 17.75 1 18 1 18 C 0.640625 17.996094 0.304688 18.183594 0.121094 18.496094 C -0.0585938 18.808594 -0.0585938 19.191406 0.121094 19.503906 C 0.304688 19.816406 0.640625 20.003906 1 20 C 2 20 2.734375 19.5 3.65625 18.90625 C 4.578125 18.3125 5.59375 17.5625 6.59375 16.8125 C 7.59375 16.0625 8.578125 15.3125 9.40625 14.78125 C 10.234375 14.25 11 14 11 14 C 11 14 11.324219 14.113281 11.75 14.59375 C 12.175781 15.074219 12.65625 15.8125 13.15625 16.5625 C 13.65625 17.3125 14.175781 18.074219 14.75 18.71875 C 15.324219 19.363281 16 20 17 20 C 18 20 18.734375 19.5 19.65625 18.90625 C 20.578125 18.3125 21.59375 17.5625 22.59375 16.8125 C 23.59375 16.0625 24.578125 15.3125 25.40625 14.78125 C 26.234375 14.25 27 14 27 14 C 27 14 27.324219 14.113281 27.75 14.59375 C 28.175781 15.074219 28.65625 15.8125 29.15625 16.5625 C 29.65625 17.3125 30.175781 18.074219 30.75 18.71875 C 31.324219 19.363281 32 20 33 20 C 34 20 34.734375 19.5 35.65625 18.90625 C 36.578125 18.3125 37.59375 17.5625 38.59375 16.8125 C 39.59375 16.0625 40.578125 15.3125 41.40625 14.78125 C 42.234375 14.25 43 14 43 14 C 43 14 43.324219 14.113281 43.75 14.59375 C 44.175781 15.074219 44.65625 15.8125 45.15625 16.5625 C 45.65625 17.3125 46.175781 18.074219 46.75 18.71875 C 47.324219 19.363281 48 20 49 20 C 49.359375 20.003906 49.695313 19.816406 49.878906 19.503906 C 50.058594 19.191406 50.058594 18.808594 49.878906 18.496094 C 49.695313 18.183594 49.359375 17.996094 49 18 C 49 18 48.675781 17.886719 48.25 17.40625 C 47.824219 16.925781 47.34375 16.1875 46.84375 15.4375 C 46.34375 14.6875 45.824219 13.925781 45.25 13.28125 C 44.675781 12.636719 44 12 43 12 C 42 12 41.265625 12.5 40.34375 13.09375 C 39.421875 13.6875 38.40625 14.4375 37.40625 15.1875 C 36.40625 15.9375 35.421875 16.6875 34.59375 17.21875 C 33.765625 17.75 33 18 33 18 C 33 18 32.675781 17.886719 32.25 17.40625 C 31.824219 16.925781 31.34375 16.1875 30.84375 15.4375 C 30.34375 14.6875 29.824219 13.925781 29.25 13.28125 C 28.675781 12.636719 28 12 27 12 C 26 12 25.265625 12.5 24.34375 13.09375 C 23.421875 13.6875 22.40625 14.4375 21.40625 15.1875 C 20.40625 15.9375 19.421875 16.6875 18.59375 17.21875 C 17.765625 17.75 17 18 17 18 C 17 18 16.675781 17.886719 16.25 17.40625 C 15.824219 16.925781 15.34375 16.1875 14.84375 15.4375 C 14.34375 14.6875 13.824219 13.925781 13.25 13.28125 C 12.675781 12.636719 12 12 11 12 Z M 11 30 C 10 30 9.265625 30.5 8.34375 31.09375 C 7.421875 31.6875 6.40625 32.4375 5.40625 33.1875 C 4.40625 33.9375 3.421875 34.6875 2.59375 35.21875 C 1.765625 35.75 1 36 1 36 C 0.640625 35.996094 0.304688 36.183594 0.121094 36.496094 C -0.0585938 36.808594 -0.0585938 37.191406 0.121094 37.503906 C 0.304688 37.816406 0.640625 38.003906 1 38 C 2 38 2.734375 37.5 3.65625 36.90625 C 4.578125 36.3125 5.59375 35.5625 6.59375 34.8125 C 7.59375 34.0625 8.578125 33.3125 9.40625 32.78125 C 10.234375 32.25 11 32 11 32 C 11 32 11.324219 32.113281 11.75 32.59375 C 12.175781 33.074219 12.65625 33.8125 13.15625 34.5625 C 13.65625 35.3125 14.175781 36.074219 14.75 36.71875 C 15.324219 37.363281 16 38 17 38 C 18 38 18.734375 37.5 19.65625 36.90625 C 20.578125 36.3125 21.59375 35.5625 22.59375 34.8125 C 23.59375 34.0625 24.578125 33.3125 25.40625 32.78125 C 26.234375 32.25 27 32 27 32 C 27 32 27.324219 32.113281 27.75 32.59375 C 28.175781 33.074219 28.65625 33.8125 29.15625 34.5625 C 29.65625 35.3125 30.175781 36.074219 30.75 36.71875 C 31.324219 37.363281 32 38 33 38 C 34 38 34.734375 37.5 35.65625 36.90625 C 36.578125 36.3125 37.59375 35.5625 38.59375 34.8125 C 39.59375 34.0625 40.578125 33.3125 41.40625 32.78125 C 42.234375 32.25 43 32 43 32 C 43 32 43.324219 32.113281 43.75 32.59375 C 44.175781 33.074219 44.65625 33.8125 45.15625 34.5625 C 45.65625 35.3125 46.175781 36.074219 46.75 36.71875 C 47.324219 37.363281 48 38 49 38 C 49.359375 38.003906 49.695313 37.816406 49.878906 37.503906 C 50.058594 37.191406 50.058594 36.808594 49.878906 36.496094 C 49.695313 36.183594 49.359375 35.996094 49 36 C 49 36 48.675781 35.886719 48.25 35.40625 C 47.824219 34.925781 47.34375 34.1875 46.84375 33.4375 C 46.34375 32.6875 45.824219 31.925781 45.25 31.28125 C 44.675781 30.636719 44 30 43 30 C 42 30 41.265625 30.5 40.34375 31.09375 C 39.421875 31.6875 38.40625 32.4375 37.40625 33.1875 C 36.40625 33.9375 35.421875 34.6875 34.59375 35.21875 C 33.765625 35.75 33 36 33 36 C 33 36 32.675781 35.886719 32.25 35.40625 C 31.824219 34.925781 31.34375 34.1875 30.84375 33.4375 C 30.34375 32.6875 29.824219 31.925781 29.25 31.28125 C 28.675781 30.636719 28 30 27 30 C 26 30 25.265625 30.5 24.34375 31.09375 C 23.421875 31.6875 22.40625 32.4375 21.40625 33.1875 C 20.40625 33.9375 19.421875 34.6875 18.59375 35.21875 C 17.765625 35.75 17 36 17 36 C 17 36 16.675781 35.886719 16.25 35.40625 C 15.824219 34.925781 15.34375 34.1875 14.84375 33.4375 C 14.34375 32.6875 13.824219 31.925781 13.25 31.28125 C 12.675781 30.636719 12 30 11 30 Z"/></svg>