<svg xmlns="http://www.w3.org/2000/svg"  viewBox="0 0 50 50" width="100px" height="100px"><path d="M 9.03125 0 C 5.25 0 2.875 1.730469 1.59375 3.4375 C 0.3125 5.144531 0 6.875 0 6.875 C -0.09375 7.425781 0.277344 7.953125 0.828125 8.046875 C 1.378906 8.140625 1.90625 7.769531 2 7.21875 C 2 7.21875 2.203125 5.9375 3.1875 4.625 C 4.171875 3.3125 5.828125 2 9.03125 2 C 10.480469 2 11.738281 2.546875 12.96875 3.59375 C 14.199219 4.640625 15.378906 6.179688 16.40625 8.125 C 18.464844 12.011719 20.023438 17.390625 21.15625 22.96875 C 23.421875 34.125 24 46.171875 24 49 C 23.992188 49.308594 24.128906 49.601563 24.367188 49.796875 C 24.601563 49.992188 24.917969 50.066406 25.21875 50 C 25.320313 49.972656 25.414063 49.929688 25.5 49.875 C 25.519531 49.867188 25.542969 49.855469 25.5625 49.84375 C 25.621094 49.796875 25.671875 49.746094 25.71875 49.6875 C 25.792969 49.625 25.855469 49.550781 25.90625 49.46875 C 25.953125 49.371094 25.984375 49.265625 26 49.15625 C 26.003906 49.105469 26.003906 49.050781 26 49 C 26 46.171875 26.578125 34.125 28.84375 22.96875 C 29.976563 17.390625 31.535156 12.011719 33.59375 8.125 C 34.621094 6.179688 35.800781 4.640625 37.03125 3.59375 C 38.261719 2.546875 39.519531 2 40.96875 2 C 44.171875 2 45.828125 3.3125 46.8125 4.625 C 47.796875 5.9375 48 7.21875 48 7.21875 C 48.09375 7.769531 48.621094 8.140625 49.171875 8.046875 C 49.722656 7.953125 50.09375 7.425781 50 6.875 C 50 6.875 49.6875 5.144531 48.40625 3.4375 C 47.125 1.730469 44.75 0 40.96875 0 C 39.003906 0 37.226563 0.78125 35.71875 2.0625 C 34.210938 3.34375 32.953125 5.09375 31.84375 7.1875 C 29.625 11.375 28.03125 16.910156 26.875 22.59375 C 26.042969 26.679688 25.433594 30.828125 25 34.625 C 24.566406 30.828125 23.957031 26.679688 23.125 22.59375 C 21.96875 16.910156 20.375 11.375 18.15625 7.1875 C 17.046875 5.09375 15.789063 3.34375 14.28125 2.0625 C 12.773438 0.78125 10.996094 0 9.03125 0 Z"/></svg>