<svg xmlns="http://www.w3.org/2000/svg"  viewBox="0 0 50 50" width="100px" height="100px"><path d="M 23.40625 4 C 9.480469 4 0.34375 11.96875 0.34375 11.96875 C -0.078125 12.332031 -0.128906 12.96875 0.234375 13.390625 C 0.597656 13.8125 1.234375 13.863281 1.65625 13.5 C 1.65625 13.5 10.238281 6 23.40625 6 C 30.613281 6 36.378906 8.570313 40.21875 11 C 40.144531 11 40.074219 11 40 11 C 34.488281 11 30 15.488281 30 21 C 30 26.511719 34.488281 31 40 31 C 45.511719 31 50 26.511719 50 21 C 50 18.300781 48.902344 15.863281 47.15625 14.0625 C 47.121094 13.996094 47.078125 13.933594 47.03125 13.875 C 47.03125 13.875 37.941406 4 23.40625 4 Z M 40 13 C 41.9375 13 43.710938 13.671875 45.09375 14.8125 C 45.359375 15.070313 45.53125 15.21875 45.53125 15.21875 C 45.550781 15.242188 45.570313 15.261719 45.59375 15.28125 C 47.078125 16.730469 48 18.753906 48 21 C 48 25.429688 44.429688 29 40 29 C 35.570313 29 32 25.429688 32 21 C 32 16.570313 35.570313 13 40 13 Z M 10 19 C 4.488281 19 0 23.488281 0 29 C 0 31.707031 1.085938 34.164063 2.84375 35.96875 C 2.871094 36.003906 2.902344 36.035156 2.9375 36.0625 C 2.945313 36.082031 2.957031 36.105469 2.96875 36.125 C 2.96875 36.125 12.058594 46 26.59375 46 C 40.519531 46 49.65625 38.03125 49.65625 38.03125 C 50.078125 37.667969 50.128906 37.03125 49.765625 36.609375 C 49.402344 36.1875 48.765625 36.136719 48.34375 36.5 C 48.34375 36.5 39.761719 44 26.59375 44 C 19.386719 44 13.621094 41.429688 9.78125 39 C 9.855469 39 9.925781 39 10 39 C 15.511719 39 20 34.511719 20 29 C 20 23.488281 15.511719 19 10 19 Z M 10 21 C 14.429688 21 18 24.570313 18 29 C 18 33.429688 14.429688 37 10 37 C 8.0625 37 6.289063 36.328125 4.90625 35.1875 C 4.902344 35.183594 4.878906 35.191406 4.875 35.1875 C 4.617188 34.933594 4.46875 34.78125 4.46875 34.78125 C 4.429688 34.734375 4.390625 34.695313 4.34375 34.65625 C 2.898438 33.210938 2 31.214844 2 29 C 2 24.570313 5.570313 21 10 21 Z"/></svg>