<svg xmlns="http://www.w3.org/2000/svg"  viewBox="0 0 50 50" width="100px" height="100px"><path d="M 0.8125 0 C 0.390625 0.0742188 0.0625 0.410156 -0.00390625 0.835938 C -0.0664063 1.261719 0.148438 1.679688 0.53125 1.875 C 0.53125 1.875 6 4.785156 6 11.8125 L 6 35 C 5.996094 35.359375 6.183594 35.695313 6.496094 35.878906 C 6.808594 36.058594 7.191406 36.058594 7.503906 35.878906 C 7.816406 35.695313 8.003906 35.359375 8 35 L 8 11.8125 C 8 11.628906 7.976563 11.460938 7.96875 11.28125 C 7.96875 11.269531 7.96875 11.261719 7.96875 11.25 C 7.988281 11.167969 8 11.085938 8 11 C 8 10.515625 8.355469 9.578125 9.0625 8.5625 C 9.769531 7.546875 10.773438 6.433594 11.84375 5.4375 C 12.914063 4.441406 14.054688 3.53125 15.03125 2.90625 C 16.007813 2.28125 16.933594 2 17 2 C 17.285156 2 18.160156 2.1875 19.125 2.59375 C 20.089844 3 21.183594 3.613281 22.21875 4.40625 C 24.289063 5.992188 26 8.222656 26 11 L 26 27 C 26 32.378906 27.359375 36.632813 29.96875 39.5625 C 30.179688 39.796875 30.433594 39.972656 30.65625 40.1875 C 29.917969 41.90625 29.023438 43.539063 27.59375 44.8125 C 25.480469 46.691406 22.308594 48 17 48 C 16.640625 47.996094 16.304688 48.183594 16.121094 48.496094 C 15.941406 48.808594 15.941406 49.191406 16.121094 49.503906 C 16.304688 49.816406 16.640625 50.003906 17 50 C 22.644531 50 26.414063 48.558594 28.9375 46.3125 C 30.488281 44.933594 31.457031 43.277344 32.25 41.5625 C 34.625 43.167969 37.601563 44 41 44 C 45.957031 44 50 39.957031 50 35 C 50 30.042969 45.957031 26 41 26 C 37.636719 26 35.503906 27.703125 34.28125 29.96875 C 33.058594 32.234375 32.5 35 31.65625 37.6875 C 31.59375 37.882813 31.5 38.058594 31.4375 38.25 C 29.242188 35.785156 28 32.042969 28 27 L 28 11 C 28 7.410156 25.808594 4.632813 23.4375 2.8125 C 22.25 1.902344 21.027344 1.222656 19.90625 0.75 C 18.785156 0.277344 17.828125 0 17 0 C 15.953125 0 15.074219 0.539063 13.96875 1.25 C 12.863281 1.960938 11.621094 2.894531 10.46875 3.96875 C 9.316406 5.042969 8.257813 6.222656 7.4375 7.40625 C 7.402344 7.457031 7.378906 7.511719 7.34375 7.5625 C 5.6875 2.445313 1.46875 0.125 1.46875 0.125 C 1.269531 0.0078125 1.039063 -0.0351563 0.8125 0 Z M 41 28 C 44.878906 28 48 31.121094 48 35 C 48 38.878906 44.878906 42 41 42 C 37.722656 42 35.082031 41.1875 33.03125 39.65625 C 33.191406 39.207031 33.421875 38.761719 33.5625 38.3125 C 34.445313 35.5 35.027344 32.765625 36.03125 30.90625 C 37.035156 29.046875 38.234375 28 41 28 Z"/></svg>