<svg xmlns="http://www.w3.org/2000/svg"  viewBox="0 0 50 50" width="100px" height="100px"><path d="M 0.8125 0 C 0.390625 0.0742188 0.0625 0.410156 -0.00390625 0.835938 C -0.0664063 1.261719 0.148438 1.679688 0.53125 1.875 C 0.53125 1.875 6 4.78125 6 11.8125 L 6 39 C 5.996094 39.359375 6.183594 39.695313 6.496094 39.878906 C 6.808594 40.058594 7.191406 40.058594 7.503906 39.878906 C 7.816406 39.695313 8.003906 39.359375 8 39 L 8 11.8125 C 8 11.628906 7.976563 11.460938 7.96875 11.28125 C 7.992188 11.191406 8.003906 11.09375 8 11 C 8 9.742188 9.070313 7.25 10.46875 5.28125 C 11.167969 4.296875 11.945313 3.441406 12.625 2.84375 C 13.304688 2.246094 13.933594 2 14 2 C 14.007813 2 14.65625 2.246094 15.34375 2.90625 C 16.03125 3.566406 16.792969 4.519531 17.5 5.5625 C 18.207031 6.605469 18.859375 7.753906 19.3125 8.75 C 19.765625 9.746094 20 10.644531 20 11 C 20 11.03125 20 11.0625 20 11.09375 L 20 39 C 19.996094 39.359375 20.183594 39.695313 20.496094 39.878906 C 20.808594 40.058594 21.191406 40.058594 21.503906 39.878906 C 21.816406 39.695313 22.003906 39.359375 22 39 L 22 11.15625 C 22.003906 11.105469 22.003906 11.050781 22 11 C 22 9.742188 23.070313 7.25 24.46875 5.28125 C 25.167969 4.296875 25.945313 3.441406 26.625 2.84375 C 27.304688 2.246094 27.933594 2 28 2 C 28.007813 2 28.65625 2.246094 29.34375 2.90625 C 30.03125 3.566406 30.792969 4.519531 31.5 5.5625 C 32.207031 6.605469 32.859375 7.753906 33.3125 8.75 C 33.765625 9.746094 34 10.644531 34 11 L 34 31 C 34 36.132813 35.046875 39.957031 37.5625 42.46875 C 39.675781 44.578125 42.714844 45.621094 46.65625 45.90625 L 44.28125 48.28125 C 43.882813 48.679688 43.882813 49.320313 44.28125 49.71875 C 44.679688 50.117188 45.320313 50.117188 45.71875 49.71875 L 49.5625 45.84375 C 49.617188 45.808594 49.671875 45.765625 49.71875 45.71875 C 49.742188 45.6875 49.761719 45.65625 49.78125 45.625 C 49.804688 45.605469 49.824219 45.585938 49.84375 45.5625 C 49.882813 45.503906 49.914063 45.441406 49.9375 45.375 C 49.949219 45.355469 49.960938 45.332031 49.96875 45.3125 C 49.96875 45.300781 49.96875 45.292969 49.96875 45.28125 C 49.980469 45.25 49.992188 45.21875 50 45.1875 C 50.015625 45.082031 50.015625 44.980469 50 44.875 C 50 44.855469 50 44.832031 50 44.8125 C 50 44.800781 50 44.792969 50 44.78125 C 49.992188 44.761719 49.980469 44.738281 49.96875 44.71875 C 49.96875 44.707031 49.96875 44.699219 49.96875 44.6875 C 49.960938 44.667969 49.949219 44.644531 49.9375 44.625 C 49.9375 44.613281 49.9375 44.605469 49.9375 44.59375 C 49.929688 44.574219 49.917969 44.550781 49.90625 44.53125 C 49.894531 44.519531 49.886719 44.511719 49.875 44.5 C 49.867188 44.480469 49.855469 44.457031 49.84375 44.4375 C 49.808594 44.382813 49.765625 44.328125 49.71875 44.28125 L 49.6875 44.28125 C 49.667969 44.257813 49.648438 44.238281 49.625 44.21875 L 45.71875 40.28125 C 45.476563 40.03125 45.121094 39.925781 44.78125 40 C 44.40625 40.066406 44.105469 40.339844 44 40.703125 C 43.894531 41.070313 44.003906 41.460938 44.28125 41.71875 L 46.4375 43.875 C 43 43.574219 40.585938 42.644531 38.96875 41.03125 C 36.976563 39.042969 36 35.867188 36 31 L 36 11 C 36 10.039063 35.636719 9.03125 35.125 7.90625 C 34.613281 6.78125 33.921875 5.566406 33.15625 4.4375 C 32.390625 3.308594 31.554688 2.273438 30.71875 1.46875 C 29.882813 0.664063 29.109375 0 28 0 C 26.953125 0 26.15625 0.574219 25.3125 1.3125 C 24.46875 2.050781 23.617188 3.039063 22.84375 4.125 C 22.09375 5.179688 21.421875 6.328125 20.90625 7.46875 C 20.421875 6.46875 19.824219 5.421875 19.15625 4.4375 C 18.390625 3.308594 17.554688 2.273438 16.71875 1.46875 C 15.882813 0.664063 15.109375 0 14 0 C 12.953125 0 12.15625 0.574219 11.3125 1.3125 C 10.46875 2.050781 9.617188 3.039063 8.84375 4.125 C 8.203125 5.027344 7.605469 5.996094 7.125 6.96875 C 5.351563 2.269531 1.46875 0.125 1.46875 0.125 C 1.269531 0.0078125 1.039063 -0.0351563 0.8125 0 Z"/></svg>