<svg xmlns="http://www.w3.org/2000/svg"  viewBox="0 0 50 50" width="100px" height="100px"><path d="M 30 0 C 22.28125 0 16 6.28125 16 14 C 16 18.222656 16.828125 21.054688 17.71875 23.34375 C 16.34375 22.492188 14.730469 22 13 22 C 8.042969 22 4 26.042969 4 31 C 4 35.957031 8.042969 40 13 40 C 17.894531 40 21.898438 36.058594 22 31.1875 C 22 31.175781 22 31.167969 22 31.15625 C 22.003906 31.105469 22.003906 31.050781 22 31 C 22 30.625 21.980469 30.269531 21.9375 29.90625 C 21.71875 27.441406 20.796875 25.554688 19.9375 23.5 C 18.957031 21.148438 18 18.503906 18 14 C 18 7.359375 23.359375 2 30 2 C 36.640625 2 42 7.359375 42 14 C 42 19.820313 38.726563 24.03125 35.25 28.0625 C 31.820313 32.035156 28.109375 35.804688 28 40.78125 C 27.992188 40.855469 27.992188 40.925781 28 41 C 28 41.03125 28 41.0625 28 41.09375 C 28.050781 46.007813 32.074219 50 37 50 C 40.34375 50 43.261719 48.15625 44.8125 45.4375 C 45.0625 45.128906 45.105469 44.703125 44.921875 44.347656 C 44.738281 43.996094 44.363281 43.785156 43.96875 43.8125 C 43.574219 43.835938 43.230469 44.09375 43.09375 44.46875 C 41.890625 46.582031 39.617188 48 37 48 C 33.175781 48 30.082031 44.960938 30 41.15625 C 30.003906 41.105469 30.003906 41.050781 30 41 C 30.007813 40.9375 30.007813 40.875 30 40.8125 C 30.097656 36.828125 33.285156 33.390625 36.75 29.375 C 40.273438 25.292969 44 20.574219 44 14 C 44 6.28125 37.71875 0 30 0 Z M 13 24 C 16.636719 24 19.613281 26.742188 19.96875 30.28125 C 19.992188 30.515625 20 30.757813 20 31 C 20 31.03125 20 31.0625 20 31.09375 C 19.949219 34.925781 16.847656 38 13 38 C 9.121094 38 6 34.878906 6 31 C 6 27.121094 9.121094 24 13 24 Z"/></svg>