<svg xmlns="http://www.w3.org/2000/svg"  viewBox="0 0 50 50" width="100px" height="100px"><path d="M 25 7 C 16.230469 7 9 13.433594 9 21.46875 C 9 25.632813 10.941406 29.375 14.03125 32 L 1 32 C 0.96875 32 0.9375 32 0.90625 32 C 0.355469 32.027344 -0.0742188 32.496094 -0.046875 33.046875 C -0.0195313 33.597656 0.449219 34.027344 1 34 L 17.28125 34 C 17.3125 34 17.34375 34 17.375 34 C 17.4375 33.996094 17.5 33.984375 17.5625 33.96875 C 17.59375 33.960938 17.625 33.949219 17.65625 33.9375 C 17.6875 33.917969 17.71875 33.898438 17.75 33.875 C 17.804688 33.847656 17.855469 33.816406 17.90625 33.78125 C 18.144531 33.589844 18.28125 33.304688 18.28125 33 C 18.28125 32.988281 18.28125 32.980469 18.28125 32.96875 C 18.269531 32.707031 18.160156 32.460938 17.96875 32.28125 C 17.957031 32.28125 17.949219 32.28125 17.9375 32.28125 C 17.929688 32.261719 17.917969 32.238281 17.90625 32.21875 C 17.894531 32.207031 17.886719 32.199219 17.875 32.1875 C 17.855469 32.175781 17.832031 32.164063 17.8125 32.15625 C 17.800781 32.15625 17.792969 32.15625 17.78125 32.15625 C 17.769531 32.144531 17.761719 32.136719 17.75 32.125 C 17.71875 32.101563 17.6875 32.082031 17.65625 32.0625 C 17.625 32.050781 17.59375 32.039063 17.5625 32.03125 C 13.59375 29.8125 11 25.898438 11 21.46875 C 11 14.636719 17.199219 9 25 9 C 32.796875 9 39 14.636719 39 21.46875 C 39 25.902344 36.410156 29.8125 32.4375 32.03125 C 32.410156 32.046875 32.371094 32.046875 32.34375 32.0625 C 32.277344 32.085938 32.214844 32.117188 32.15625 32.15625 C 32.125 32.175781 32.09375 32.195313 32.0625 32.21875 C 32.007813 32.253906 31.953125 32.296875 31.90625 32.34375 C 31.894531 32.363281 31.882813 32.386719 31.875 32.40625 C 31.59375 32.746094 31.570313 33.230469 31.8125 33.597656 C 32.058594 33.964844 32.515625 34.128906 32.9375 34 L 49 34 C 49.359375 34.003906 49.695313 33.816406 49.878906 33.503906 C 50.058594 33.191406 50.058594 32.808594 49.878906 32.496094 C 49.695313 32.183594 49.359375 31.996094 49 32 L 35.9375 32 C 39.035156 29.375 41 25.636719 41 21.46875 C 41 13.429688 33.769531 7 25 7 Z M 0.8125 41 C 0.261719 41.050781 -0.144531 41.542969 -0.09375 42.09375 C -0.0429688 42.644531 0.449219 43.050781 1 43 L 49 43 C 49.359375 43.003906 49.695313 42.816406 49.878906 42.503906 C 50.058594 42.191406 50.058594 41.808594 49.878906 41.496094 C 49.695313 41.183594 49.359375 40.996094 49 41 L 1 41 C 0.96875 41 0.9375 41 0.90625 41 C 0.875 41 0.84375 41 0.8125 41 Z"/></svg>