<svg xmlns="http://www.w3.org/2000/svg"  viewBox="0 0 50 50" width="100px" height="100px"><path d="M 8.8125 0 C 8.449219 0.0664063 8.148438 0.328125 8.039063 0.683594 C 7.925781 1.039063 8.019531 1.425781 8.28125 1.6875 C 8.28125 1.6875 15.617188 9.496094 16 24 L 9 24 C 8.96875 24 8.9375 24 8.90625 24 C 8.355469 24.027344 7.925781 24.496094 7.953125 25.046875 C 7.980469 25.597656 8.449219 26.027344 9 26 L 16 26 C 15.71875 40.695313 8.28125 48.3125 8.28125 48.3125 C 7.988281 48.558594 7.863281 48.953125 7.957031 49.320313 C 8.050781 49.691406 8.351563 49.976563 8.722656 50.054688 C 9.097656 50.132813 9.484375 49.988281 9.71875 49.6875 C 9.71875 49.6875 17.710938 41.394531 18 26 L 32 26 C 32.289063 41.394531 40.28125 49.6875 40.28125 49.6875 C 40.515625 49.988281 40.902344 50.132813 41.277344 50.054688 C 41.648438 49.976563 41.949219 49.691406 42.042969 49.320313 C 42.136719 48.953125 42.011719 48.558594 41.71875 48.3125 C 41.71875 48.3125 34.28125 40.695313 34 26 L 41 26 C 41.359375 26.003906 41.695313 25.816406 41.878906 25.503906 C 42.058594 25.191406 42.058594 24.808594 41.878906 24.496094 C 41.695313 24.183594 41.359375 23.996094 41 24 L 34 24 C 34.382813 9.496094 41.71875 1.6875 41.71875 1.6875 C 42.023438 1.378906 42.09375 0.910156 41.894531 0.527344 C 41.695313 0.144531 41.269531 -0.0703125 40.84375 0 C 40.625 0.0390625 40.429688 0.148438 40.28125 0.3125 C 40.28125 0.3125 32.394531 8.792969 32 24 L 18 24 C 17.605469 8.792969 9.71875 0.3125 9.71875 0.3125 C 9.488281 0.0625 9.148438 -0.0585938 8.8125 0 Z"/></svg>