<svg xmlns="http://www.w3.org/2000/svg"  viewBox="0 0 50 50" width="100px" height="100px"><path d="M 22.8125 2 C 22.261719 2.050781 21.855469 2.542969 21.90625 3.09375 C 21.957031 3.644531 22.449219 4.050781 23 4 L 44.5625 4 L 15 33.5625 L 5.71875 24.28125 C 5.476563 24.03125 5.121094 23.925781 4.78125 24 C 4.40625 24.066406 4.105469 24.339844 4 24.703125 C 3.894531 25.070313 4.003906 25.460938 4.28125 25.71875 L 13.5625 35 L 2.28125 46.28125 C 1.882813 46.679688 1.882813 47.320313 2.28125 47.71875 C 2.679688 48.117188 3.320313 48.117188 3.71875 47.71875 L 15 36.4375 L 24.28125 45.71875 C 24.679688 46.117188 25.320313 46.117188 25.71875 45.71875 C 26.117188 45.320313 26.117188 44.679688 25.71875 44.28125 L 16.4375 35 L 46 5.4375 L 46 27 C 45.996094 27.359375 46.183594 27.695313 46.496094 27.878906 C 46.808594 28.058594 47.191406 28.058594 47.503906 27.878906 C 47.816406 27.695313 48.003906 27.359375 48 27 L 48 3.3125 C 48.15625 2.832031 47.929688 2.304688 47.46875 2.09375 C 47.449219 2.082031 47.425781 2.070313 47.40625 2.0625 C 47.394531 2.0625 47.386719 2.0625 47.375 2.0625 C 47.355469 2.050781 47.332031 2.039063 47.3125 2.03125 C 47.300781 2.03125 47.292969 2.03125 47.28125 2.03125 C 47.261719 2.019531 47.238281 2.007813 47.21875 2 C 47.199219 2 47.175781 2 47.15625 2 C 47.144531 2 47.136719 2 47.125 2 C 47.105469 2 47.082031 2 47.0625 2 C 47.050781 2 47.042969 2 47.03125 2 C 47.019531 2 47.011719 2 47 2 L 23 2 C 22.96875 2 22.9375 2 22.90625 2 C 22.875 2 22.84375 2 22.8125 2 Z"/></svg>