<svg xmlns="http://www.w3.org/2000/svg"  viewBox="0 0 50 50" width="100px" height="100px"><path d="M 0.8125 0 C 0.261719 0.0507813 -0.144531 0.542969 -0.09375 1.09375 C -0.0429688 1.644531 0.449219 2.050781 1 2 C 4.332031 2 6.285156 2.902344 7.78125 4.25 C 9.277344 5.597656 10.304688 7.488281 11.4375 9.5 C 12.570313 11.511719 13.828125 13.636719 15.90625 15.28125 C 16.8125 15.996094 17.878906 16.605469 19.125 17.0625 C 12.636719 19.457031 8 25.6875 8 33 C 8 42.378906 15.621094 50 25 50 C 34.378906 50 42 42.378906 42 33 C 42 25.6875 37.363281 19.457031 30.875 17.0625 C 32.121094 16.605469 33.1875 15.996094 34.09375 15.28125 C 36.171875 13.636719 37.429688 11.511719 38.5625 9.5 C 39.695313 7.488281 40.722656 5.597656 42.21875 4.25 C 43.714844 2.902344 45.667969 2 49 2 C 49.359375 2.003906 49.695313 1.816406 49.878906 1.503906 C 50.058594 1.191406 50.058594 0.808594 49.878906 0.496094 C 49.695313 0.183594 49.359375 -0.00390625 49 0 C 45.289063 0 42.710938 1.097656 40.875 2.75 C 39.039063 4.402344 37.929688 6.511719 36.8125 8.5 C 35.695313 10.488281 34.589844 12.363281 32.875 13.71875 C 31.183594 15.054688 28.875 15.972656 25.15625 16 C 25.125 16 25.09375 16 25.0625 16 C 25.039063 16 25.023438 16 25 16 C 24.96875 16 24.9375 16 24.90625 16 C 21.148438 15.984375 18.824219 15.0625 17.125 13.71875 C 15.410156 12.363281 14.304688 10.488281 13.1875 8.5 C 12.070313 6.511719 10.960938 4.402344 9.125 2.75 C 7.289063 1.097656 4.710938 0 1 0 C 0.96875 0 0.9375 0 0.90625 0 C 0.875 0 0.84375 0 0.8125 0 Z M 24.8125 18 C 24.875 18 24.933594 18 25 18 C 25.03125 18 25.0625 18 25.09375 18 C 33.347656 18.050781 40 24.734375 40 33 C 40 41.296875 33.296875 48 25 48 C 16.703125 48 10 41.296875 10 33 C 10 24.765625 16.605469 18.101563 24.8125 18 Z"/></svg>