<svg xmlns="http://www.w3.org/2000/svg"  viewBox="0 0 50 50" width="100px" height="100px"><path d="M 2.8125 0 C 2.390625 0.0742188 2.0625 0.410156 1.996094 0.835938 C 1.933594 1.261719 2.148438 1.679688 2.53125 1.875 C 2.53125 1.875 8 4.78125 8 11.8125 L 8 39 C 7.996094 39.359375 8.183594 39.695313 8.496094 39.878906 C 8.808594 40.058594 9.191406 40.058594 9.503906 39.878906 C 9.816406 39.695313 10.003906 39.359375 10 39 L 10 11.8125 C 10 11.628906 9.976563 11.460938 9.96875 11.28125 C 9.992188 11.191406 10.003906 11.09375 10 11 C 10 9.742188 11.070313 7.25 12.46875 5.28125 C 13.167969 4.296875 13.945313 3.441406 14.625 2.84375 C 15.304688 2.246094 15.933594 2 16 2 C 16.007813 2 16.65625 2.246094 17.34375 2.90625 C 18.03125 3.566406 18.792969 4.519531 19.5 5.5625 C 20.207031 6.605469 20.859375 7.753906 21.3125 8.75 C 21.765625 9.746094 22 10.644531 22 11 C 22 11.03125 22 11.0625 22 11.09375 L 22 39 C 21.996094 39.359375 22.183594 39.695313 22.496094 39.878906 C 22.808594 40.058594 23.191406 40.058594 23.503906 39.878906 C 23.816406 39.695313 24.003906 39.359375 24 39 L 24 11.15625 C 24.003906 11.105469 24.003906 11.050781 24 11 C 24 9.742188 25.070313 7.25 26.46875 5.28125 C 27.167969 4.296875 27.945313 3.441406 28.625 2.84375 C 29.304688 2.246094 29.933594 2 30 2 C 30.007813 2 30.65625 2.246094 31.34375 2.90625 C 32.03125 3.566406 32.792969 4.519531 33.5 5.5625 C 34.207031 6.605469 34.859375 7.753906 35.3125 8.75 C 35.765625 9.746094 36 10.644531 36 11 L 36 21 C 36 21.03125 36 21.0625 36 21.09375 L 36 39 C 36 39.640625 36.042969 40.238281 36.09375 40.8125 C 34.0625 42.167969 31.644531 43.292969 28.75 44.03125 C 28.214844 44.167969 27.894531 44.714844 28.03125 45.25 C 28.167969 45.785156 28.714844 46.105469 29.25 45.96875 C 31.996094 45.269531 34.363281 44.222656 36.40625 42.96875 C 36.8125 44.886719 37.46875 46.339844 38.15625 47.40625 C 39.257813 49.109375 40.5 49.875 40.5 49.875 C 40.984375 50.152344 41.597656 49.984375 41.875 49.5 C 42.152344 49.015625 41.984375 48.402344 41.5 48.125 C 41.5 48.125 40.742188 47.703125 39.84375 46.3125 C 39.199219 45.316406 38.546875 43.832031 38.21875 41.75 C 40.859375 39.773438 42.855469 37.425781 44.3125 35.03125 C 47.105469 30.445313 48 25.757813 48 23 C 48 19.953125 47.4375 16.886719 46.625 14.5 C 46.21875 13.304688 45.761719 12.285156 45.21875 11.5 C 44.675781 10.714844 44.019531 10 43 10 C 41.933594 10 41.28125 10.652344 40.5625 11.40625 C 39.84375 12.160156 39.132813 13.128906 38.46875 14.21875 C 38.300781 14.492188 38.160156 14.78125 38 15.0625 L 38 11 C 38 10.039063 37.636719 9.03125 37.125 7.90625 C 36.613281 6.78125 35.921875 5.566406 35.15625 4.4375 C 34.390625 3.308594 33.554688 2.273438 32.71875 1.46875 C 31.882813 0.664063 31.109375 0 30 0 C 28.953125 0 28.15625 0.574219 27.3125 1.3125 C 26.46875 2.050781 25.617188 3.039063 24.84375 4.125 C 24.09375 5.179688 23.421875 6.328125 22.90625 7.46875 C 22.421875 6.46875 21.824219 5.421875 21.15625 4.4375 C 20.390625 3.308594 19.554688 2.273438 18.71875 1.46875 C 17.882813 0.664063 17.109375 0 16 0 C 14.953125 0 14.15625 0.574219 13.3125 1.3125 C 12.46875 2.050781 11.617188 3.039063 10.84375 4.125 C 10.203125 5.027344 9.605469 5.996094 9.125 6.96875 C 7.351563 2.269531 3.46875 0.125 3.46875 0.125 C 3.269531 0.0078125 3.039063 -0.0351563 2.8125 0 Z M 43 12.03125 C 43.054688 12.078125 43.277344 12.210938 43.5625 12.625 C 43.941406 13.175781 44.382813 14.050781 44.75 15.125 C 45.480469 17.273438 46 20.199219 46 23 C 46 25.304688 45.164063 29.777344 42.59375 34 C 41.4375 35.898438 39.933594 37.742188 38 39.375 C 37.996094 39.25 38 39.128906 38 39 L 38 21.15625 C 38.003906 21.105469 38.003906 21.050781 38 21 C 38 19.757813 38.941406 17.269531 40.15625 15.28125 C 40.761719 14.285156 41.457031 13.382813 42.03125 12.78125 C 42.460938 12.328125 42.882813 12.109375 43 12.03125 Z"/></svg>